<svg width="159" height="19" viewBox="0 0 159 19" fill="none" xmlns="http://www.w3.org/2000/svg">
<path d="M0.00800008 1.272H15.752L7.88 18.336L0.00800008 1.272ZM7.88 16.224L14.384 2.16H1.4L7.88 16.224ZM29.2696 1.296V2.184H24.2776V17.112H29.2696V18H18.4456V17.112H23.4136V2.184H18.4456V1.296H29.2696ZM40.1713 10.008C38.8112 9.736 37.6992 9.44 36.8352 9.12C35.9872 8.784 35.3152 8.336 34.8192 7.776C34.3392 7.2 34.0992 6.464 34.0992 5.568C34.0992 4.64 34.3392 3.824 34.8192 3.12C35.3152 2.416 36.0032 1.872 36.8832 1.488C37.7793 1.104 38.8112 0.912 39.9792 0.912C41.0993 0.912 42.1233 1.152 43.0512 1.632C43.9952 2.096 44.7393 2.752 45.2833 3.6C45.8273 4.448 46.0993 5.416 46.0993 6.504H45.2113C45.2113 5.56 44.9793 4.728 44.5153 4.008C44.0512 3.288 43.4192 2.736 42.6193 2.352C41.8192 1.952 40.9312 1.752 39.9553 1.752C39.0913 1.752 38.2833 1.888 37.5312 2.16C36.7792 2.432 36.1632 2.848 35.6832 3.408C35.2192 3.968 34.9872 4.672 34.9872 5.52C34.9872 6.288 35.2112 6.904 35.6592 7.368C36.1072 7.816 36.6912 8.16 37.4112 8.4C38.1313 8.64 39.1393 8.896 40.4353 9.168C41.7473 9.44 42.7632 9.704 43.4832 9.96C44.2192 10.2 44.8352 10.608 45.3313 11.184C45.8433 11.76 46.0993 12.568 46.0993 13.608C46.0993 14.648 45.8193 15.528 45.2592 16.248C44.7153 16.952 43.9873 17.48 43.0753 17.832C42.1633 18.184 41.1713 18.36 40.0993 18.36C38.7713 18.36 37.6033 18.112 36.5953 17.616C35.5872 17.12 34.8112 16.424 34.2672 15.528C33.7392 14.616 33.4752 13.576 33.4752 12.408H34.3632C34.3632 13.432 34.5872 14.328 35.0352 15.096C35.4992 15.864 36.1632 16.464 37.0272 16.896C37.8913 17.312 38.9153 17.52 40.0993 17.52C41.5713 17.52 42.7873 17.168 43.7473 16.464C44.7233 15.76 45.2113 14.8 45.2113 13.584C45.2113 12.752 45.0033 12.112 44.5872 11.664C44.1713 11.216 43.6433 10.896 43.0033 10.704C42.3793 10.496 41.4353 10.264 40.1713 10.008ZM49.3449 18V1.296H50.2329V9.192H61.3209V1.296H62.2089V18H61.3209V10.08H50.2329V18H49.3449ZM79.6625 1.296L75.1745 18H74.2385L71.7425 8.712L69.2465 18H68.3105L63.8225 1.296H64.7345L68.7665 16.344L71.2865 7.008L69.7505 1.296H70.6625L72.1985 7.008L74.7185 16.344L78.7505 1.296H79.6625ZM87.2521 1.296H88.1881L95.0521 18H94.0921L91.8361 12.48H83.6041L81.3241 18H80.3881L87.2521 1.296ZM83.9641 11.616H91.4761L87.7081 2.448L83.9641 11.616ZM103.386 18.36C102.25 18.36 101.194 18.104 100.218 17.592C99.2417 17.064 98.4417 16.344 97.8177 15.432C97.1937 14.52 96.8257 13.512 96.7137 12.408H97.6017C97.7137 13.352 98.0417 14.216 98.5857 15C99.1297 15.768 99.8177 16.376 100.65 16.824C101.498 17.256 102.41 17.472 103.386 17.472C104.458 17.472 105.442 17.208 106.338 16.68C107.234 16.152 107.946 15.424 108.474 14.496C109.002 13.568 109.266 12.528 109.266 11.376V2.184H101.778V1.296H110.13V11.376C110.13 12.688 109.826 13.88 109.218 14.952C108.626 16.008 107.81 16.84 106.77 17.448C105.746 18.056 104.618 18.36 103.386 18.36ZM113.879 1.296H125.639V2.184H114.767V8.952H124.223V9.84H114.767V17.112H125.639V18H113.879V1.296ZM129.845 1.296H141.605V2.184H130.733V8.952H140.189V9.84H130.733V17.112H141.605V18H129.845V1.296ZM158.315 1.296V2.184H152.003V18H151.139V2.184H144.827V1.296H158.315Z" fill="white"/>
</svg>
