<svg width="238" height="238" viewBox="0 0 238 238" fill="none" xmlns="http://www.w3.org/2000/svg">
<path d="M18.2719 70.4798C18.4899 70.0894 18.8078 69.7034 19.0258 69.3129C19.2438 68.9224 19.4572 68.6319 19.5708 68.3367C19.7888 67.9462 20.0068 67.5558 20.1249 67.1607C20.3429 66.7703 20.5609 66.3798 20.679 65.9847L21.1648 66.3072C20.9423 66.7976 20.8242 67.1926 20.8151 67.3924C20.806 67.5922 20.8968 67.7965 21.092 67.9055C21.2872 68.0145 21.487 68.0236 21.7822 68.1372C22.0773 68.2507 22.4769 68.2689 22.9718 68.3916L31.6173 69.7865C28.8614 66.5577 27.1543 64.4779 26.2962 63.5379C25.4381 62.5978 24.8614 62.071 24.5709 61.8576C24.2757 61.744 24.0759 61.7349 23.8761 61.7258C23.6718 61.8166 23.4583 62.1072 23.1359 62.593L22.5502 62.266C22.7636 61.9755 22.9816 61.585 23.1951 61.2944C23.4085 61.0038 23.5266 60.6088 23.7401 60.3182C23.8536 60.023 24.0671 59.7325 24.1806 59.4373C24.3986 59.0468 24.5122 58.7517 24.7302 58.3612L25.3159 58.6882L25.2114 58.7836C24.8844 59.3693 25.1432 60.282 25.9967 61.3219C26.1874 61.5308 26.3781 61.7397 26.4734 61.8442C29.5063 65.5861 31.3995 67.9747 32.3484 69.1191C33.2973 70.2635 33.774 70.7857 33.9647 70.9946L33.4152 72.0707C33.3198 71.9663 32.3254 71.8208 30.4411 71.4347C28.5521 71.1484 26.468 70.7532 24.0795 70.4441C23.8798 70.435 23.68 70.4259 23.3848 70.3124C20.7013 69.8898 19.1937 70.0213 18.8622 70.7069C18.8576 70.8068 18.8576 70.8068 18.7577 70.8023C18.6578 70.7977 18.7532 70.9022 18.7532 70.9022L18.2719 70.4798Z" fill="black"/>
<path d="M28.6672 53.2351C28.985 52.8491 29.2984 52.5631 29.5164 52.1727C29.8343 51.7867 30.0477 51.4961 30.3656 51.1102C30.5791 50.8196 30.7925 50.529 31.1104 50.1431C31.3284 49.7526 31.6463 49.3667 31.9642 48.9807L32.4455 49.4031L32.341 49.4984C32.1276 49.789 31.9141 50.0796 31.9005 50.3793C31.8914 50.5791 31.8823 50.7789 31.9731 50.9832C32.0684 51.0877 32.2591 51.2966 32.4498 51.5055C32.7404 51.7189 33.1263 52.0368 33.7029 52.5636L35.2512 53.7353L39.1196 56.7144C39.7008 57.1413 40.1866 57.4638 40.4772 57.6772C40.7723 57.7908 40.9676 57.8998 41.1628 58.0088C41.3626 58.0179 41.5624 58.027 41.6714 57.8317C41.7804 57.6365 42.0892 57.4503 42.3027 57.1598L42.4116 56.9645L42.9928 57.3914C42.6749 57.7773 42.3525 58.2632 42.0391 58.5492C41.7212 58.9351 41.5078 59.2257 41.2943 59.5163C41.0809 59.8069 40.763 60.1928 40.545 60.5833C40.2271 60.9692 40.0091 61.3597 39.6867 61.8455L39.1055 61.4187L39.2145 61.2234C39.4279 60.9328 39.6414 60.6422 39.6505 60.4425C39.7595 60.2472 39.7686 60.0474 39.6778 59.8431C39.587 59.6387 39.3963 59.4298 39.1057 59.2164C38.8197 58.903 38.2385 58.4761 37.3668 57.8358L36.1091 56.8776L33.1124 54.5388C32.3406 53.903 31.7594 53.4761 31.3689 53.2581C30.9784 53.0401 30.7877 52.8312 30.5879 52.8221C30.3927 52.7131 30.1883 52.8039 29.984 52.8947C29.7797 52.9855 29.5708 53.1762 29.2529 53.5621L29.1484 53.6574L28.6672 53.2351Z" fill="black"/>
<path d="M42.0555 38.4279C42.4415 38.7458 42.7275 39.0591 43.1134 39.377C43.4994 39.6949 43.8899 39.9129 44.2803 40.1309L43.8489 40.812C43.1724 40.2807 42.5775 40.1535 41.8737 40.2215C41.2698 40.2941 40.5523 40.6618 39.9211 41.3338C39.2944 41.9058 38.9628 42.5915 38.931 43.2907C38.8991 43.99 39.0762 44.4986 39.5529 45.0208C40.3202 45.7565 41.8277 45.625 43.9802 44.5218C44.289 44.3357 44.4933 44.2449 44.5978 44.1495C45.6195 43.6956 46.4323 43.4323 47.2315 43.4687C48.0306 43.5051 48.6164 43.8321 49.2929 44.3635C50.2509 45.308 50.605 46.3252 50.5458 47.6239C50.3867 48.918 49.8326 50.094 48.6792 51.2426C48.2568 51.7239 47.839 52.1053 47.3213 52.4822C46.8036 52.859 46.2905 53.1359 45.7774 53.4128C45.7774 53.4128 45.682 53.3084 45.5867 53.2039C45.4913 53.0995 45.3914 53.095 45.3007 52.8906C45.0146 52.5773 44.6287 52.2593 44.2382 52.0414C43.8523 51.7235 43.4618 51.5055 43.0713 51.2875L43.5073 50.5065C44.3791 51.1468 45.1646 51.483 45.8684 51.4149C46.5722 51.3469 47.3896 50.9837 48.1298 50.1165C48.7611 49.4445 49.1971 48.6636 49.2289 47.9643C49.2653 47.1651 49.0929 46.5566 48.5162 46.0299C47.7489 45.2942 46.4457 45.3349 44.702 46.2565C44.4976 46.3473 44.2887 46.5379 44.0889 46.5288C42.8583 47.1735 41.8412 47.5276 41.042 47.4912C40.2428 47.4548 39.4573 47.1187 38.7853 46.4874C38.018 45.7517 37.6639 44.7346 37.7186 43.5358C37.7732 42.3371 38.3182 41.3608 39.2628 40.4028C39.5807 40.0169 39.9939 39.7354 40.4071 39.4539C40.8204 39.1725 41.438 38.8002 42.0555 38.4279Z" fill="black"/>
<path d="M47.4144 32.8672C47.8276 32.5858 48.1364 32.3996 48.5496 32.1181C48.863 31.8321 49.1718 31.646 49.4806 31.4598C49.7894 31.2737 50.1027 30.9876 50.4161 30.7016C50.7294 30.4156 51.0427 30.1295 51.4514 29.948L51.8283 30.4656L51.6194 30.6563C51.2061 30.9378 50.9881 31.3283 50.9745 31.628C50.9608 31.9277 51.3285 32.6452 52.0868 33.5806L52.3682 33.9939L53.7802 35.9602C54.0935 35.6741 54.5022 35.4926 54.9155 35.2111C55.3287 34.9296 55.8464 34.5527 56.4685 34.0806C57.1906 33.613 57.8127 33.1408 58.3304 32.764C58.8481 32.3871 59.3658 32.0103 59.8834 31.6335L58.2808 29.4583C57.5271 28.4229 56.9551 27.7962 56.6599 27.6827C56.3648 27.5691 55.9607 27.6508 55.5474 27.9323L55.3385 28.123L54.9617 27.6053C55.3749 27.3238 55.6837 27.1377 55.9971 26.8516C56.3104 26.5656 56.7191 26.384 57.0324 26.098C57.3412 25.9118 57.6546 25.6258 57.9634 25.4397C58.2767 25.1536 58.5901 24.8676 59.0033 24.5861L59.3801 25.1038C59.3801 25.1038 59.2802 25.0992 59.2757 25.1991L59.1712 25.2945C58.758 25.576 58.54 25.9665 58.6262 26.2707C58.7079 26.6748 58.9848 27.188 59.6432 28.1189C59.734 28.3232 60.0245 28.5367 60.3015 29.0498C60.583 29.4631 60.8644 29.8763 61.155 30.0898L62.6623 32.1605C62.8485 32.4693 63.1345 32.7826 63.4114 33.2958C63.6929 33.709 63.979 34.0224 64.0698 34.2267C64.7326 35.0577 65.2094 35.58 65.4999 35.7934C65.7951 35.907 66.1947 35.9252 66.6125 35.5438C66.7169 35.4484 66.7169 35.4484 66.8168 35.453L66.9212 35.3577L67.2981 35.8753C66.8848 36.1568 66.4716 36.4383 66.0584 36.7198C65.6451 37.0013 65.4362 37.1919 65.1274 37.3781C64.8186 37.5642 64.5053 37.8503 64.1919 38.1363C63.8786 38.4223 63.4654 38.7038 63.0521 38.9853L62.6753 38.4676L62.7797 38.3723C62.8796 38.3768 62.8842 38.2769 62.8842 38.2769C63.2974 37.9954 63.5154 37.605 63.5291 37.3053C63.5427 37.0056 63.175 36.2881 62.5122 35.4571L61.8538 34.5262L60.6326 32.7687L60.5281 32.8641C59.1839 33.8039 58.1486 34.5575 57.5264 35.0297C57.0087 35.4065 56.5955 35.688 56.1777 36.0694C56.0778 36.0648 56.0733 36.1648 56.0733 36.1648C55.8644 36.3554 55.5556 36.5416 55.3467 36.7323C55.0379 36.9184 54.829 37.1091 54.5157 37.3951L56.4044 39.8837C57.158 40.9191 57.6347 41.4413 58.0298 41.5594C58.3249 41.6729 58.729 41.5912 59.1423 41.3098L59.2467 41.2144C59.3512 41.1191 59.3512 41.1191 59.3512 41.1191L59.728 41.6368C59.3148 41.9182 58.9015 42.1997 58.5927 42.3859C58.2794 42.6719 57.8707 42.8535 57.6618 43.0442C57.4529 43.2349 57.1441 43.421 56.8308 43.707C56.5174 43.9931 56.1042 44.2746 55.691 44.556L55.3141 44.0384L55.4186 43.943C55.4186 43.943 55.523 43.8477 55.6229 43.8522C56.0362 43.5708 56.2542 43.1803 56.1679 42.876C56.0862 42.4719 55.8138 41.8588 55.151 41.0278C55.0602 40.8235 54.7696 40.61 54.4927 40.0969C54.2112 39.6836 53.9297 39.2704 53.6391 39.057L52.1318 36.9862C51.9457 36.6774 51.6596 36.3641 51.3781 35.9508C51.0967 35.5376 50.9105 35.2288 50.8152 35.1244C50.1569 34.1934 49.6801 33.6712 49.2851 33.5531C48.8901 33.435 48.5904 33.4213 48.1726 33.8027C48.1726 33.8027 48.1726 33.8027 48.0681 33.8981L47.9637 33.9934L47.4144 32.8672Z" fill="black"/>
<path d="M75.54 28.5421L75.3047 20.523L73.9744 18.9609C73.4977 18.4386 73.2117 18.1253 72.912 18.1117C72.7167 18.0027 72.4125 18.0889 72.0084 18.1706C71.9085 18.166 71.804 18.2614 71.804 18.2614L71.6996 18.3567L71.4272 17.7437C72.0357 17.5712 72.4444 17.3896 72.7532 17.2035C73.0574 17.1172 73.3662 16.9311 73.6704 16.8448C73.8748 16.7541 74.1836 16.5679 74.4878 16.4817C74.7966 16.2955 75.3052 16.1185 75.9228 15.7462L76.1952 16.3592L75.9908 16.45C75.5821 16.6316 75.2733 16.8178 75.1689 16.9131C75.0644 17.0085 75.0553 17.2083 75.1461 17.4126C75.2415 17.517 75.3323 17.7214 75.4276 17.8258C75.5229 17.9303 75.8044 18.3435 76.1858 18.7613L82.188 25.4414C82.12 24.7376 82.0701 23.6342 81.9295 22.3264C81.5349 17.8038 81.349 15.2927 81.1674 14.884C81.0812 14.5798 80.886 14.4708 80.6862 14.4617C80.4864 14.4526 80.1821 14.5388 79.7735 14.7204L79.5691 14.8112L79.2967 14.1982C79.7054 14.0166 80.0096 13.9304 80.4183 13.7488C80.7271 13.5626 81.0314 13.4764 81.3356 13.3901C81.6444 13.204 81.9486 13.1178 82.3573 12.9362C82.6661 12.75 82.9749 12.5639 83.3791 12.4822L83.6514 13.0952L83.547 13.1906C83.3426 13.2814 83.2382 13.3767 83.1383 13.3722C83.0338 13.4675 82.9294 13.5628 82.9249 13.6627C82.8159 13.858 82.8475 15.361 82.9244 18.0673L82.9697 19.2706L83.0648 21.5773C83.1328 22.2812 83.1917 23.1848 83.2416 24.2882C83.3503 26.2952 83.3956 27.4985 83.4819 27.8028L82.4601 28.2567C82.274 27.9479 81.8881 27.63 81.5067 27.2122C81.4113 27.1078 81.316 27.0034 81.2207 26.8989L76.3581 21.5721L76.539 28.5876C76.5344 28.6875 76.5299 28.7874 76.5253 28.8873C76.4934 29.5865 76.566 30.1905 76.6432 30.6945L75.6214 31.1485C75.4353 30.8397 74.6726 30.0041 73.1425 28.4328C72.4751 27.7017 71.8984 27.1749 71.5171 26.7571L69.315 24.5546C68.9336 24.1368 68.4569 23.6146 67.8848 22.9879C66.55 21.5256 65.5784 20.8807 65.0698 21.0578C65.0698 21.0578 64.9699 21.0532 64.9653 21.1531C64.9608 21.253 64.8609 21.2485 64.8609 21.2485L64.5885 20.6354C64.9972 20.4538 65.3014 20.3676 65.7101 20.186C66.0189 19.9999 66.3231 19.9136 66.6274 19.8274C66.9362 19.6413 67.3403 19.5596 67.6491 19.3734C67.9579 19.1873 68.3666 19.0057 68.6754 18.8196L68.9478 19.4326C68.5391 19.6142 68.2303 19.8003 68.1258 19.8957C68.0214 19.991 68.0123 20.1908 68.1031 20.3952C68.1939 20.5995 68.5707 21.1172 69.2381 21.8483L69.3335 21.9528L75.54 28.5421Z" fill="black"/>
<path d="M93.7003 10.0495L95.3168 9.72266C96.7106 12.0885 98.0181 14.1502 99.2303 16.1074C100.442 18.0646 101.378 19.5087 102.036 20.4396C102.413 20.9573 102.699 21.2706 102.994 21.3842C103.189 21.4932 103.489 21.5068 103.793 21.4206L103.998 21.3298L104.165 22.0382C103.661 22.1153 103.157 22.1925 102.753 22.2741C102.349 22.3558 101.945 22.4375 101.741 22.5283C101.337 22.61 101.032 22.6963 100.528 22.7734C100.024 22.8505 99.6155 23.0321 99.2114 23.1138L99.0389 22.5053L99.2387 22.5144C99.6428 22.4327 99.9516 22.2466 100.156 22.1558C100.26 22.0605 100.374 21.7653 100.283 21.561C100.288 21.4611 100.192 21.3566 100.197 21.2567C100.201 21.1568 100.111 20.9525 100.015 20.8481L98.4354 18.1734C98.2311 18.2642 97.8269 18.3458 97.4228 18.4275C96.6145 18.5909 96.2104 18.6726 95.9062 18.7589C95.502 18.8405 95.0979 18.9223 94.6937 19.0039C94.2896 19.0856 93.8855 19.1673 93.4813 19.249C93.3268 20.4432 93.1814 21.4376 93.1587 21.9371C93.1314 22.5365 93.1131 22.9361 93.2039 23.1404C93.2902 23.4446 93.381 23.649 93.5762 23.758C93.7715 23.867 94.0711 23.8806 94.4798 23.6991L94.7841 23.6128L94.9566 24.2213C94.4525 24.2984 94.0484 24.3801 93.6442 24.4618C93.2401 24.5435 92.836 24.6252 92.5317 24.7114C92.2275 24.7977 91.9233 24.8839 91.619 24.9702C91.2149 25.0519 90.8107 25.1336 90.4021 25.3152L90.2296 24.7067C90.6337 24.625 91.0424 24.4434 91.2558 24.1528C91.4647 23.9621 91.6827 23.5716 91.8008 23.1766C92.037 22.3865 92.3142 20.6974 92.7231 18.3135C92.9459 15.6209 93.3685 12.9373 93.7003 10.0495ZM94.6219 11.7932L93.7403 17.9595C93.8402 17.964 94.0445 17.8732 94.2443 17.8823C94.9527 17.7144 95.4567 17.6373 95.761 17.551C96.0652 17.4648 96.6692 17.3922 97.482 17.1289C97.6863 17.0381 97.7862 17.0427 97.8861 17.0472L94.6219 11.7932Z" fill="black"/>
<path d="M107.219 7.76312C107.319 7.76767 107.419 7.77222 107.519 7.77677C108.522 7.72239 109.326 7.65892 109.725 7.67713C110.13 7.59544 110.833 7.52738 111.837 7.473C112.037 7.4821 112.137 7.48668 112.241 7.39133L112.309 8.09514C111.905 8.17683 111.601 8.26309 111.396 8.35389C111.192 8.44468 111.083 8.63992 111.074 8.83971C111.065 9.03951 111.047 9.43907 111.019 10.0385C111.092 10.6424 111.124 12.1454 111.323 14.3568C111.387 15.1605 111.45 15.9642 111.604 16.9723C111.659 17.9758 111.731 18.5797 111.822 18.7841C111.872 19.8875 111.931 20.7911 111.804 21.3859C111.676 21.9808 111.549 22.5756 111.222 23.1613C110.891 23.8469 110.368 24.3236 109.851 24.7005C109.333 25.0773 108.725 25.2498 108.021 25.3178C107.517 25.3949 107.122 25.2769 106.827 25.1633C106.531 25.0498 106.445 24.7455 106.359 24.4413C106.368 24.2415 106.382 23.9418 106.491 23.7465C106.6 23.5513 106.804 23.4605 107.008 23.3697C107.208 23.3788 107.408 23.3879 107.798 23.6059C108.189 23.8239 108.489 23.8376 108.788 23.8512C109.292 23.7741 109.706 23.4926 109.828 22.9977C110.051 22.5073 110.092 21.6082 109.947 20.4004L109.121 9.95198C109.053 9.24815 108.972 8.84403 108.681 8.63058C108.49 8.42168 108.091 8.40347 107.491 8.37616L107.292 8.36705L107.219 7.76312Z" fill="black"/>
<path d="M119.066 7C120.165 7.05007 121.259 7.20003 122.158 7.241C123.057 7.28196 123.856 7.31837 124.456 7.34568C125.155 7.37754 125.954 7.41395 126.654 7.44581C127.353 7.47767 128.152 7.51407 128.956 7.45058C128.933 7.95007 128.91 8.44955 128.987 8.95358C128.965 9.45306 129.042 9.9571 129.019 10.4566L128.315 10.5246C128.252 9.7209 128.075 9.21231 127.689 8.89441C127.303 8.57652 126.308 8.43112 124.91 8.3674C124.51 8.34919 123.911 8.32188 122.912 8.27637C122.712 8.26727 122.612 8.26272 122.512 8.25816C122.476 9.05734 122.435 9.9564 122.28 11.1506C122.126 12.3448 122.194 13.0486 122.08 13.3438L122.38 13.3574C122.78 13.3756 123.279 13.3984 123.779 13.4212C124.378 13.4485 124.778 13.4667 124.977 13.4758C125.876 13.5167 126.58 13.4487 126.889 13.2625C127.198 13.0764 127.411 12.7858 127.434 12.2863L128.029 12.4135C128.011 12.8131 127.893 13.2082 127.879 13.5079C127.865 13.8075 127.847 14.2071 127.833 14.5068C127.824 14.7066 127.811 15.0063 127.783 15.6057C127.774 15.8055 127.765 16.0053 127.761 16.1052L127.161 16.0779L127.166 15.978C127.193 15.3786 127.007 15.0698 126.716 14.8563C126.426 14.6429 125.631 14.5066 124.432 14.452L122.035 14.3427C122.021 14.6424 121.998 15.1419 121.976 15.6414C121.948 16.2408 121.93 16.6404 121.921 16.8402C121.903 17.2397 121.88 17.7392 121.862 18.1388C121.839 18.6383 121.816 19.1378 121.789 19.7371C122.089 19.7508 122.484 19.8689 122.883 19.8871C123.283 19.9053 123.782 19.9281 124.282 19.9508C125.88 20.0237 126.988 19.8739 127.501 19.597C128.014 19.3201 128.441 18.7389 128.782 17.8535L129.472 18.0851C129.25 18.5755 129.023 19.1658 128.9 19.6607C128.677 20.1511 128.555 20.646 128.427 21.2408C127.429 21.1953 126.434 21.0499 125.535 21.009C124.636 20.968 123.837 20.9316 123.138 20.8997C122.139 20.8542 120.64 20.7859 118.438 20.7857L118.038 20.7675L118.066 20.1681L118.165 20.1727C118.165 20.1727 118.265 20.1772 118.365 20.1818C119.264 20.2227 119.719 19.0422 119.828 16.6447C119.855 16.0453 119.878 15.5458 119.891 15.2461L120.014 12.5489C120.042 11.9495 120.064 11.45 120.092 10.8507C120.114 10.3512 120.142 9.75182 120.174 9.05254C120.201 8.45317 120.115 8.14891 119.929 7.84012C119.738 7.63123 119.343 7.51314 118.843 7.49038L118.743 7.48583L119.066 7Z" fill="black"/>
<path d="M136.82 8.4095C137.909 8.65936 138.899 8.90467 139.789 9.14543C140.679 9.38618 141.374 9.51793 142.069 9.64969C142.763 9.78144 143.458 9.91319 144.253 10.0495C144.947 10.1813 145.742 10.3176 146.437 10.4493C146.314 10.9443 146.291 11.4437 146.169 11.9387C146.046 12.4336 146.023 12.9331 146 13.4326L145.301 13.4007C145.438 12.6061 145.26 12.0975 144.879 11.6797C144.498 11.2619 143.608 11.0212 142.223 10.6578C141.828 10.5397 141.233 10.4124 140.239 10.267C140.039 10.2579 139.939 10.2534 139.844 10.1489C139.707 10.9436 139.466 11.8335 139.217 12.9233C138.967 14.013 138.835 14.7078 138.717 15.1028L139.017 15.1165C139.412 15.2346 139.911 15.2573 140.406 15.3799C141.001 15.5071 141.296 15.6207 141.496 15.6298C142.386 15.8706 143.085 15.9024 143.394 15.7163C143.698 15.63 143.912 15.3395 144.034 14.8445L144.624 15.0716C144.506 15.4667 144.388 15.8617 144.275 16.1568C144.161 16.452 144.148 16.7517 144.034 17.0468C144.025 17.2466 143.911 17.5417 143.884 18.1411C143.875 18.3409 143.866 18.5407 143.861 18.6406L143.266 18.5134L143.271 18.4135C143.394 17.9185 143.312 17.5144 143.026 17.2011C142.735 16.9876 142.05 16.6561 140.86 16.4017L139.175 16.0246L138.481 15.8929C138.367 16.188 138.344 16.6875 138.222 17.1824C138.095 17.7772 137.976 18.1723 137.967 18.3721C137.849 18.7671 137.826 19.2666 137.708 19.6616C137.586 20.1565 137.563 20.656 137.436 21.2508C137.731 21.3644 138.126 21.4825 138.521 21.6006C138.916 21.7187 139.411 21.8414 139.806 21.9595C141.391 22.332 142.49 22.382 143.098 22.2096C143.706 22.0371 144.233 21.4604 144.669 20.6795L145.355 21.011C145.032 21.4968 144.81 21.9872 144.487 22.473C144.265 22.9634 144.042 23.4538 143.82 23.9442C142.83 23.6989 141.94 23.4581 141.05 23.2174C140.16 22.9766 139.465 22.8449 138.771 22.7131C137.781 22.4678 136.291 22.1998 134.207 21.8045L133.908 21.7908L134.035 21.196L134.135 21.2005C134.135 21.2005 134.235 21.2051 134.334 21.2097C135.229 21.3505 135.878 20.279 136.387 17.8997C136.514 17.3048 136.637 16.8099 136.751 16.5148L137.368 13.9402C137.496 13.3454 137.618 12.8504 137.741 12.3555C137.864 11.8606 137.991 11.2657 138.118 10.6709C138.245 10.0761 138.263 9.67653 138.073 9.46763C137.882 9.25874 137.591 9.04529 137.097 8.92264L136.997 8.91809L136.82 8.4095Z" fill="black"/>
<path d="M151.539 25.8979L151.834 26.0115C152.229 26.1296 152.624 26.2477 152.824 26.2568C153.024 26.2659 153.233 26.0752 153.446 25.7846C153.555 25.5894 153.887 24.9038 154.336 23.8231C154.791 22.6425 155.572 20.8763 156.489 18.3154L157.625 15.364L155.754 14.6781C154.869 14.3375 154.174 14.2057 153.77 14.2874C153.366 14.3691 152.943 14.8504 152.512 15.5315L151.926 15.2045C152.249 14.7186 152.571 14.2328 152.794 13.7424C153.016 13.2521 153.239 12.7617 153.461 12.2713C153.552 12.4756 153.943 12.6936 154.433 12.9162C154.923 13.1387 155.904 13.5838 157.28 14.147L159.541 15.0509C161.412 15.7367 162.592 16.1909 163.087 16.3136C163.682 16.4408 164.077 16.5589 164.281 16.4681C164.277 16.568 164.172 16.6634 164.168 16.7633C164.063 16.8586 164.059 16.9585 164.054 17.0584C163.936 17.4534 163.818 17.8485 163.6 18.2389C163.482 18.634 163.359 19.1289 163.241 19.5239L162.646 19.3967C162.878 18.7065 162.806 18.1026 162.619 17.7938C162.438 17.3851 161.852 17.0582 160.871 16.6131L159.101 15.9317C158.982 16.3268 158.764 16.7173 158.533 17.4074C157.856 19.0784 157.406 20.159 157.179 20.7493C156.38 22.9152 155.812 24.3908 155.476 25.1764C155.24 25.9664 155.117 26.4614 155.108 26.6611C155.099 26.8609 155.19 27.0653 155.281 27.2696C155.476 27.3786 155.666 27.5875 156.061 27.7056L156.357 27.8192L156.13 28.4095C155.639 28.1869 155.149 27.9644 154.754 27.8463C154.363 27.6283 153.868 27.5056 153.573 27.392C153.278 27.2785 152.883 27.1604 152.393 26.9378C151.898 26.8152 151.407 26.5926 150.912 26.47L151.539 25.8979Z" fill="black"/>
<path d="M171.326 35.4096L171.422 35.514C171.422 35.514 171.517 35.6185 171.617 35.623C172.003 35.9409 172.403 35.9591 172.811 35.7775C173.12 35.5914 173.647 35.0148 174.392 34.0477C174.501 33.8524 174.71 33.6617 174.932 33.1714C175.25 32.7854 175.463 32.4948 175.577 32.1997L179.11 27.1553C179.433 26.6694 179.546 26.3743 179.56 26.0746C179.474 25.7704 179.288 25.4616 178.802 25.1391L178.702 25.1346L179.129 24.5534C179.515 24.8713 179.805 25.0848 180.191 25.4027C180.582 25.6207 180.868 25.934 181.258 26.152C181.644 26.4699 182.13 26.7923 182.716 27.1193C183.301 27.4463 183.687 27.7642 183.783 27.8687C184.945 28.7225 185.703 29.6579 185.957 30.6706C186.207 31.7831 186.062 32.7775 185.417 33.7492C184.663 34.9161 183.637 35.4699 182.429 35.6151C181.225 35.6604 179.94 35.3015 178.487 34.2343C178.392 34.1298 178.197 34.0208 177.906 33.8074C177.716 33.5985 177.425 33.385 177.134 33.1716L175.422 35.5962C174.886 36.3726 174.559 36.9583 174.541 37.3579C174.527 37.6576 174.809 38.0708 175.295 38.3933C175.295 38.3933 175.295 38.3933 175.395 38.3978C175.495 38.4024 175.495 38.4024 175.49 38.5023C175.49 38.5023 175.49 38.5023 175.59 38.5068L175.268 38.9926C174.882 38.6747 174.496 38.3569 174.105 38.1389C173.719 37.821 173.329 37.603 172.943 37.2851C172.748 37.1761 172.457 36.9626 172.066 36.7446C171.676 36.5266 171.29 36.2087 170.804 35.8863L171.326 35.4096ZM177.67 32.3952C177.861 32.6041 178.056 32.7131 178.247 32.922C178.442 33.031 178.633 33.2399 178.728 33.3443C179.695 34.0891 180.685 34.3344 181.489 34.2709C182.293 34.2074 183.015 33.7398 183.655 32.868C184.191 32.0916 184.327 31.297 184.164 30.4887C184 29.6805 183.433 28.9539 182.561 28.3135C182.37 28.1046 182.075 27.9911 181.88 27.8821C181.685 27.7731 181.39 27.6596 181.194 27.5506C180.663 28.2271 180.127 29.0035 179.596 29.68C179.16 30.461 178.519 31.3327 177.67 32.3952Z" fill="black"/>
<path d="M195.742 37.8221L196.991 38.9801C195.778 41.4275 194.774 43.6841 193.78 45.741C192.885 47.8024 192.113 49.3689 191.763 50.4541C191.536 51.0444 191.413 51.5393 191.504 51.7436C191.495 51.9434 191.681 52.2522 191.972 52.4657L192.067 52.5701L191.645 53.0514C191.263 52.6336 190.977 52.3203 190.691 52.0069C190.405 51.6936 190.115 51.4801 189.924 51.2712C189.633 51.0578 189.347 50.7445 189.061 50.4311C188.775 50.1178 188.389 49.7999 188.003 49.482L188.426 49.0007L188.521 49.1051C188.807 49.4185 189.098 49.6319 189.297 49.641C189.497 49.6501 189.702 49.5594 189.91 49.3687C190.015 49.2733 190.019 49.1734 190.124 49.0781C190.228 48.9827 190.237 48.7829 190.342 48.6876L191.772 45.8498C191.582 45.6409 191.391 45.432 191.005 45.1141C190.429 44.5873 190.147 44.174 189.952 44.065C189.666 43.7517 189.38 43.4384 189.089 43.2249C188.799 43.0115 188.513 42.6981 188.227 42.3848C187.1 42.9341 186.283 43.2973 185.77 43.5742C185.257 43.8511 184.948 44.0373 184.839 44.2325C184.63 44.4232 184.516 44.7183 184.507 44.9181C184.498 45.1179 184.684 45.4267 185.075 45.6447L185.266 45.8536L184.843 46.3349C184.557 46.0215 184.171 45.7037 183.885 45.3903C183.599 45.077 183.309 44.8635 183.118 44.6546C182.927 44.4457 182.737 44.2368 182.446 44.0234C182.155 43.8099 181.869 43.4966 181.483 43.1787L181.906 42.6974C182.292 43.0153 182.582 43.2288 182.882 43.2424C183.182 43.2561 183.581 43.2743 183.99 43.0927C184.803 42.8294 186.338 42.0985 188.585 41.0998C190.629 40.1918 193.081 39.1023 195.742 37.8221ZM194.77 39.3795L189.144 42.0261C189.239 42.1306 189.334 42.2351 189.525 42.444C190.002 42.9662 190.388 43.2841 190.579 43.493C190.769 43.7019 191.25 44.1242 191.827 44.651C191.922 44.7554 192.118 44.8645 192.113 44.9644L194.77 39.3795Z" fill="black"/>
<path d="M195.563 57.1344L195.749 57.4432C196.03 57.8564 196.221 58.0653 196.516 58.1789C196.811 58.2924 197.016 58.2016 197.22 58.1108C197.424 58.02 198.042 57.6477 199.077 56.8941C200.113 56.1404 201.666 55.0099 203.841 53.4073L206.33 51.5186L205.099 49.961C204.532 49.2344 204.055 48.7121 203.655 48.6939C203.26 48.5758 202.652 48.7483 201.934 49.116L201.662 48.503C202.175 48.2261 202.684 48.049 203.197 47.7721C203.71 47.4952 204.123 47.2137 204.541 46.8323C204.532 47.0321 204.713 47.4408 205.09 47.9585C205.367 48.4716 206.03 49.3027 206.875 50.5424L208.291 52.4088C209.521 53.9664 210.275 55.0018 210.657 55.4196C211.038 55.8374 211.324 56.1507 211.619 56.2642C211.619 56.2642 211.515 56.3596 211.41 56.4549C211.306 56.5503 211.206 56.5457 211.101 56.6411C210.788 56.9271 210.479 57.1133 210.166 57.3993C209.853 57.6853 209.539 57.9714 209.221 58.3573L208.74 57.9349C209.262 57.4582 209.585 56.9724 209.603 56.5728C209.621 56.1732 209.349 55.5602 208.79 54.6338L207.655 53.1807C207.347 53.3668 206.929 53.7482 206.411 54.125C204.962 55.1601 204.027 55.9183 203.509 56.2952C201.643 57.7117 200.399 58.656 199.776 59.1282C199.154 59.6004 198.737 59.9818 198.628 60.177C198.519 60.3723 198.41 60.5675 198.5 60.7718C198.591 60.9762 198.677 61.2804 198.963 61.5938L199.15 61.9026L198.632 62.2794C198.35 61.8661 198.069 61.4529 197.787 61.0397C197.506 60.6264 197.22 60.3131 197.034 60.0043C196.848 59.6955 196.562 59.3822 196.276 59.0688C195.994 58.6556 195.613 58.2378 195.331 57.8245L195.563 57.1344Z" fill="black"/>
<path d="M214.688 61.4093C214.869 61.8179 215.051 62.2266 215.333 62.6399C215.514 63.0486 215.796 63.4618 215.982 63.7706C216.168 64.0794 216.349 64.4881 216.636 64.8014C216.817 65.2101 217.099 65.6233 217.38 66.0366L216.762 66.4088L216.667 66.3044C216.486 65.8957 216.295 65.6868 216.1 65.5778C215.904 65.4688 215.709 65.3598 215.505 65.4506C215.305 65.4415 215.101 65.5323 214.792 65.7184C214.483 65.9046 213.974 66.0816 213.357 66.4539L211.713 67.3801L207.499 69.7908C206.782 70.1585 206.368 70.44 206.159 70.6306C205.95 70.8213 205.742 71.012 205.637 71.1074C205.528 71.3026 205.524 71.4025 205.51 71.7022C205.601 71.9066 205.687 72.2108 205.873 72.5196L205.964 72.7239L205.346 73.0962C205.069 72.5831 204.888 72.1744 204.606 71.7611C204.425 71.3524 204.243 70.9437 204.052 70.7348C203.866 70.4261 203.685 70.0174 203.403 69.6041C203.122 69.1909 202.94 68.7822 202.659 68.369L203.276 67.9967L203.367 68.201C203.553 68.5098 203.739 68.8186 203.935 68.9276C204.13 69.0366 204.325 69.1456 204.425 69.1502C204.625 69.1593 204.929 69.073 205.238 68.8869C205.646 68.7053 206.264 68.333 207.186 67.8745L208.521 67.1345L211.809 65.2822C212.73 64.8237 213.348 64.4514 213.661 64.1654C214.075 63.8839 214.279 63.7931 214.388 63.5979C214.597 63.4072 214.606 63.2074 214.615 63.0076C214.624 62.8078 214.438 62.499 214.256 62.0903L214.161 61.9859L214.688 61.4093Z" fill="black"/>
<path d="M220.317 71.8771C220.59 72.4902 220.767 72.9987 220.848 73.4029C220.935 73.7071 221.121 74.0159 221.112 74.2157C221.293 74.6244 221.475 75.0331 221.561 75.3373C221.647 75.6416 221.929 76.0548 222.11 76.4635L221.497 76.7359L221.411 76.4316C221.234 75.923 220.944 75.7096 220.544 75.6914C220.144 75.6732 219.336 75.8365 218.21 76.3859L216.375 77.1031L209.746 79.8042C209.832 80.1084 210.013 80.5171 210.1 80.8213C210.186 81.1256 210.372 81.4344 210.458 81.7386C211.085 83.3688 211.743 84.2997 212.224 84.7221C212.71 85.0445 213.405 85.1763 214.408 85.1219L214.476 85.8257C213.872 85.8983 213.273 85.871 212.769 85.9482C212.165 86.0207 211.661 86.0979 211.057 86.1704C210.703 85.1533 210.344 84.236 209.981 83.4186C209.618 82.6013 209.355 81.7884 208.987 81.071C208.81 80.5624 208.538 79.9494 208.265 79.3363C207.993 78.7233 207.625 78.0058 207.267 77.0885L207.88 76.8162L207.875 76.916C207.875 76.916 207.871 77.0159 207.966 77.1204C208.329 77.9378 209.632 77.897 211.98 76.9029C212.489 76.7258 212.897 76.5442 213.201 76.458L215.649 75.4684C215.953 75.3821 216.262 75.196 216.671 75.0144C217.079 74.8328 217.384 74.7466 217.588 74.6558C218.71 74.2064 219.427 73.8386 219.641 73.548C219.854 73.2574 219.972 72.8624 219.695 72.3493L219.7 72.2494L220.317 71.8771Z" fill="black"/>
<path d="M212.643 148.477C212.643 148.477 212.633 148.577 212.533 148.566C212.533 148.566 212.522 148.665 212.412 148.754C212.259 149.24 212.315 149.649 212.482 149.968C212.748 150.299 213.412 150.672 214.572 151.1C214.771 151.121 215.059 151.253 215.545 151.406C216.031 151.559 216.418 151.702 216.607 151.823L222.311 153.948C222.797 154.102 223.195 154.145 223.504 154.077C223.813 154.01 223.955 153.623 224.208 153.148L224.219 153.048L224.893 153.322C224.751 153.709 224.509 154.086 224.356 154.572C224.203 155.058 224.071 155.346 223.918 155.832C223.765 156.318 223.512 156.794 223.337 157.479C223.163 158.164 223.02 158.551 222.899 158.739C222.351 160.088 221.647 161.018 220.688 161.518C219.728 162.017 218.713 162.109 217.651 161.692C216.391 161.254 215.582 160.362 215.104 159.204C214.626 158.046 214.876 156.665 215.446 155.117C215.467 154.918 215.588 154.73 215.72 154.442C215.851 154.155 215.983 153.867 216.125 153.481L213.417 152.484C212.455 152.078 211.859 152.013 211.549 152.08C211.24 152.148 210.999 152.524 210.735 153.099L210.703 153.397L210.128 153.134C210.281 152.647 210.523 152.271 210.676 151.785C210.829 151.298 211.071 150.922 211.224 150.436C211.345 150.248 211.378 149.95 211.531 149.463C211.673 149.076 211.826 148.59 211.99 148.004L212.643 148.477ZM217.187 153.897C217.055 154.185 216.934 154.373 216.813 154.561C216.692 154.749 216.671 154.948 216.55 155.136C216.123 156.297 216.015 157.291 216.338 158.03C216.649 158.868 217.291 159.44 218.264 159.747C219.137 160.042 219.943 160.029 220.682 159.707C221.432 159.285 222.004 158.643 222.41 157.681C222.542 157.393 222.574 157.095 222.695 156.907C222.727 156.609 222.848 156.42 222.881 156.122C222.107 155.837 221.244 155.442 220.371 155.147C219.508 154.752 218.447 154.335 217.187 153.897Z" fill="black"/>
<path d="M207.129 162.264C207.129 162.264 207.118 162.363 207.019 162.352C207.019 162.352 207.008 162.452 206.898 162.541C206.514 163.304 207.312 164.295 209.392 165.526C209.956 165.889 210.332 166.131 210.62 166.262L212.887 167.614C213.363 167.867 213.828 168.219 214.303 168.471C214.779 168.724 215.244 169.076 215.819 169.339C216.294 169.592 216.681 169.734 216.99 169.667C217.299 169.6 217.53 169.323 217.783 168.848L217.794 168.748L218.358 169.111C218.116 169.487 217.874 169.863 217.633 170.239C217.391 170.616 217.149 170.992 217.017 171.279C216.775 171.655 216.523 172.131 216.259 172.706C215.996 173.281 215.754 173.657 215.633 173.845C215.007 174.985 214.115 175.793 213.067 176.183C212.019 176.573 211.025 176.465 210.173 175.971C209.509 175.597 208.967 175.035 208.633 174.396C208.3 173.756 208.187 172.939 208.196 171.935L204.85 172.176C204.751 172.165 204.552 172.144 204.342 172.222C202.013 172.372 200.666 172.73 200.282 173.493L200.271 173.592L199.796 173.339C199.807 173.24 199.917 173.151 199.938 172.953C200.081 172.566 200.212 172.278 200.333 172.09C200.696 171.526 201.048 171.061 201.379 170.795C201.709 170.529 202.228 170.384 202.934 170.36C203.034 170.37 203.741 170.346 204.955 170.276C206.17 170.207 207.384 170.137 208.599 170.067C208.72 169.879 208.851 169.591 208.972 169.403C209.104 169.116 209.225 168.928 209.467 168.552L209.719 168.076L207.164 166.593C206.312 166.098 205.737 165.835 205.428 165.902C205.119 165.969 204.789 166.235 204.536 166.711C204.536 166.711 204.536 166.711 204.525 166.81L204.515 166.91C204.515 166.91 204.515 166.91 204.504 167.009L203.94 166.646C204.181 166.27 204.423 165.894 204.665 165.518C204.907 165.142 205.149 164.765 205.391 164.389C205.512 164.201 205.643 163.914 205.885 163.537C206.127 163.161 206.28 162.675 206.533 162.199L207.129 162.264ZM210.791 168.393C210.56 168.67 210.439 168.858 210.308 169.145C210.187 169.334 210.055 169.621 209.934 169.809C209.813 169.997 209.692 170.185 209.671 170.384C209.649 170.583 209.418 170.86 209.297 171.048C209.321 171.755 209.456 172.373 209.7 172.902C209.945 173.431 210.41 173.783 211.073 174.157C211.826 174.641 212.621 174.727 213.349 174.504C214.077 174.281 214.738 173.749 215.233 172.897C215.354 172.709 215.485 172.421 215.606 172.233C215.727 172.045 215.859 171.758 215.881 171.559C215.217 171.185 214.465 170.701 213.701 170.317C212.938 169.933 212.119 169.14 210.791 168.393Z" fill="black"/>
<path d="M203.99 191.295C203.307 192.026 202.635 192.657 201.985 193.09C201.235 193.511 200.507 193.734 199.591 193.837C198.575 193.928 197.581 193.82 196.608 193.514C195.636 193.208 194.784 192.713 193.954 192.02C193.123 191.327 192.513 190.456 192.014 189.497C191.514 188.537 191.323 187.511 191.331 186.506C191.318 185.7 191.415 184.805 191.699 184.031C191.984 183.257 192.369 182.494 192.941 181.852C193.634 181.022 194.395 180.501 195.255 179.99C196.114 179.48 197.031 179.377 198.046 179.286C198.952 179.283 199.847 179.38 200.709 179.775C201.583 180.071 202.335 180.555 203.077 181.138C203.807 181.82 204.428 182.591 204.939 183.451C205.35 184.3 205.64 185.338 205.642 186.243C205.645 187.149 205.548 188.044 205.253 188.917C204.957 189.79 204.573 190.553 203.99 191.295ZM194.964 190.117C196.436 191.383 197.885 191.942 199.486 192.015C201.088 192.087 202.257 191.51 203.28 190.413C204.205 189.306 204.533 188.135 204.275 186.799C204.017 185.464 203.24 184.274 201.956 183.129C200.484 181.863 198.947 181.194 197.345 181.121C195.744 181.049 194.475 181.616 193.551 182.723C192.627 183.83 192.299 185.001 192.557 186.337C192.814 187.672 193.68 188.973 194.964 190.117Z" fill="black"/>
<path d="M185.259 190.576L185.702 191.127L185.482 191.304C184.82 191.836 185.189 193.083 186.696 194.956C187.051 195.396 187.405 195.837 187.583 196.057L189.168 198.14C189.522 198.581 189.877 199.021 190.132 199.451C190.487 199.892 190.842 200.333 191.285 200.884C191.64 201.324 191.917 201.555 192.215 201.588C192.513 201.62 192.833 201.453 193.274 201.099L193.384 201.01L193.827 201.561C193.496 201.827 193.166 202.093 192.846 202.259C192.526 202.426 192.295 202.703 192.086 202.781C191.535 203.224 190.874 203.756 190.312 204.299C189.651 204.831 189.31 205.196 189.2 205.285C187.327 206.792 185.44 207.493 183.541 207.389C181.641 207.284 180.126 206.416 178.796 204.763C177.466 203.11 176.864 201.235 177.167 199.357C177.471 197.478 178.46 195.775 180.333 194.268C180.553 194.09 181.104 193.647 181.865 193.126C182.625 192.604 183.176 192.161 183.617 191.806C183.837 191.629 184.057 191.452 184.388 191.186C184.597 191.108 184.928 190.842 185.259 190.576ZM183.324 193.585C182.894 193.84 182.475 193.996 182.045 194.251C181.615 194.507 181.284 194.773 180.954 195.039C179.521 196.191 178.686 197.409 178.635 198.811C178.484 200.203 179.029 201.67 180.182 203.103C181.423 204.645 182.84 205.502 184.32 205.763C185.801 206.024 187.367 205.489 188.799 204.336C189.13 204.07 189.361 203.794 189.692 203.528C190.022 203.262 190.253 202.985 190.594 202.619C189.187 200.757 188.045 199.225 187.147 198.223C186.36 197.132 185.651 196.251 185.019 195.579L183.324 193.585Z" fill="black"/>
<path d="M172.502 216.455L172.169 215.816C172.169 215.816 172.268 215.827 172.279 215.727C172.378 215.738 172.389 215.638 172.389 215.638C172.819 215.383 173.05 215.106 173.093 214.709C173.136 214.311 172.814 213.572 172.236 212.403L171.481 211.014L170.57 209.206C170.07 208.246 169.737 207.607 169.383 207.166C169.127 206.736 168.762 206.395 168.485 206.164C167.832 205.691 167.257 205.427 166.462 205.341C165.766 205.266 165.038 205.489 164.189 205.9C163.648 206.244 163.108 206.588 162.767 206.953C162.426 207.319 162.173 207.794 162.02 208.281C161.867 208.767 161.902 209.374 162.047 209.893C162.181 210.511 162.592 211.36 163.17 212.529C163.925 213.918 164.503 215.087 165.102 216.057C165.601 217.017 165.945 217.557 166.123 217.777C166.3 217.997 166.588 218.129 166.786 218.151C166.985 218.172 167.294 218.105 167.724 217.85L167.834 217.761L168.168 218.401C168.068 218.39 167.958 218.478 167.848 218.567C166.999 218.978 166.469 219.223 166.15 219.389C165.83 219.556 165.29 219.9 164.441 220.311C164.33 220.4 164.22 220.488 164.121 220.477L163.788 219.838L163.898 219.749C164.218 219.583 164.438 219.405 164.559 219.217C164.68 219.029 164.701 218.83 164.723 218.631C164.744 218.433 164.489 218.003 164.167 217.264C163.844 216.525 163.266 215.356 162.434 213.757L162.022 212.908C161.523 211.949 161.19 211.309 161.044 210.79C160.899 210.272 160.754 209.753 160.698 209.345C160.596 208.429 160.891 207.555 161.386 206.704C161.98 205.862 162.762 205.142 163.831 204.554C164.581 204.132 165.309 203.909 166.027 203.786C166.744 203.662 167.44 203.737 168.125 203.912C168.81 204.087 169.474 204.46 169.928 204.912C170.482 205.374 170.992 206.234 171.581 207.303C171.836 207.733 172.169 208.373 172.669 209.332C173.168 210.291 173.491 211.03 173.835 211.57L174.001 211.89C174.501 212.849 174.934 213.5 175.221 213.631C175.509 213.763 175.917 213.707 176.347 213.451L176.457 213.363L176.79 214.002C176.371 214.158 175.941 214.413 175.622 214.58C175.202 214.736 174.883 214.902 174.563 215.069C174.243 215.235 173.813 215.491 173.493 215.657C173.252 216.033 172.832 216.189 172.502 216.455Z" fill="black"/>
<path d="M146.181 226.382L146.114 226.073C145.958 225.653 145.803 225.234 145.657 224.716C145.502 224.296 145.257 223.767 145.112 223.248L145.752 222.915C146.163 223.764 146.805 224.337 147.678 224.632C148.551 224.928 149.567 224.837 150.704 224.557C152.26 224.122 153.262 223.225 153.899 221.986C154.436 220.736 154.487 219.334 153.875 217.558C153.273 215.682 152.308 214.371 150.992 213.524C149.675 212.678 148.283 212.527 146.727 212.962C145.79 213.263 145.029 213.785 144.457 214.427C143.884 215.069 143.489 215.931 143.382 216.926L142.686 216.85C142.74 216.353 142.783 215.956 142.836 215.459C142.89 214.961 142.834 214.553 142.888 214.056C143.449 213.513 144.099 213.081 144.739 212.747C145.379 212.414 146.018 212.081 146.746 211.858C148.831 211.178 150.72 211.383 152.335 212.261C153.95 213.14 155.192 214.683 155.772 216.757C156.352 218.831 156.247 220.731 155.258 222.435C154.269 224.138 152.738 225.28 150.653 225.96C150.024 226.194 149.306 226.317 148.589 226.441C147.871 226.564 147.087 226.379 146.181 226.382Z" fill="black"/>
<path d="M134.975 215.614L134.666 215.681C134.257 215.737 133.849 215.794 133.728 215.982C133.507 216.159 133.486 216.358 133.454 216.656C133.432 216.855 133.456 217.562 133.615 218.886C133.784 220.112 133.977 222.044 134.394 224.704L134.767 227.762L136.71 227.469C137.626 227.367 138.255 227.133 138.585 226.867C138.916 226.601 139.08 226.015 139.077 225.11L139.674 225.174C139.609 225.771 139.655 226.279 139.59 226.875C139.636 227.383 139.671 227.99 139.717 228.498C139.529 228.377 139.131 228.334 138.524 228.369C137.916 228.404 136.901 228.495 135.366 228.732L133.015 229.081C131.072 229.374 129.748 229.532 129.229 229.677C128.71 229.822 128.291 229.978 128.082 230.056C128.092 229.957 128.103 229.857 128.015 229.747C128.025 229.648 128.036 229.548 127.947 229.438C127.891 229.03 127.835 228.621 127.679 228.202C127.622 227.794 127.466 227.375 127.321 226.856L127.95 226.622C128.074 227.34 128.428 227.78 128.705 228.011C129.081 228.253 129.777 228.329 130.793 228.237L132.626 228.033C132.569 227.625 132.523 227.117 132.389 226.499C132.174 224.766 132.005 223.54 131.97 222.933C131.71 220.692 131.484 219.058 131.272 218.231C131.159 217.414 131.014 216.895 130.936 216.686C130.858 216.476 130.67 216.355 130.482 216.234C130.283 216.213 129.985 216.18 129.576 216.237L129.267 216.304L129.144 215.587C129.652 215.541 130.159 215.495 130.667 215.45C131.175 215.404 131.584 215.348 131.992 215.291C132.301 215.224 132.709 215.168 133.217 215.122C133.725 215.076 134.244 214.931 134.752 214.885L134.975 215.614Z" fill="black"/>
<path d="M113.177 216.274L113.102 216.97L113.002 216.96C113.002 216.96 112.903 216.949 112.803 216.938C111.908 216.841 111.382 217.991 111.024 220.367C110.96 220.963 110.906 221.46 110.774 221.748L110.395 224.322C110.331 224.919 110.277 225.416 110.124 225.902C110.07 226.399 110.006 226.996 109.93 227.692C109.866 228.288 109.933 228.597 110.1 228.917C110.277 229.137 110.664 229.28 111.161 229.333L111.26 229.344L111.185 230.04C110.787 229.997 110.4 229.855 110.003 229.812C109.605 229.769 109.307 229.736 109.108 229.715C108.412 229.64 107.617 229.554 106.722 229.457C105.827 229.36 105.319 229.406 105.231 229.296C102.855 228.938 101.031 228.137 99.7787 226.694C98.5266 225.251 98.1129 223.497 98.3387 221.409C98.6747 219.232 99.5534 217.617 101.085 216.475C102.617 215.333 104.57 214.941 106.857 215.189C107.155 215.221 107.851 215.296 108.735 215.492C109.619 215.689 110.315 215.764 110.912 215.828C111.21 215.861 111.508 215.893 111.906 215.936C112.303 215.979 112.68 216.221 113.177 216.274ZM109.579 216.992C109.092 216.839 108.706 216.696 108.219 216.543C107.733 216.39 107.335 216.347 106.838 216.293C105.048 216.099 103.514 216.336 102.412 217.222C101.311 218.109 100.663 219.447 100.359 221.326C100.144 223.314 100.37 224.948 101.345 226.16C102.21 227.46 103.648 228.119 105.526 228.422C105.924 228.465 106.322 228.508 106.719 228.551C107.117 228.594 107.525 228.538 107.923 228.581C108.281 226.206 108.573 224.427 108.724 223.035C108.875 221.643 109.092 220.56 109.189 219.665L109.579 216.992Z" fill="black"/>
<path d="M90.4467 226.489C89.3853 226.072 88.4126 225.766 87.5393 225.47C86.6661 225.175 85.9916 224.901 85.3064 224.726C84.6212 224.551 83.9468 224.277 83.1622 224.092C82.477 223.917 81.6924 223.731 81.018 223.457C81.1712 222.971 81.3243 222.485 81.3781 221.988C81.5313 221.501 81.585 221.004 81.7382 220.518L82.4234 220.692C82.238 221.477 82.2836 221.985 82.6383 222.426C82.993 222.866 83.7561 223.251 85.1157 223.699C85.5026 223.842 86.0884 224.006 87.0611 224.312C87.2599 224.334 87.3486 224.444 87.448 224.455C87.7329 223.681 88.0285 222.807 88.3456 221.735C88.7622 220.674 88.9369 219.989 89.0793 219.602L88.7918 219.47C88.4048 219.328 88.0179 219.185 87.4321 219.021C86.8464 218.857 86.5589 218.726 86.36 218.704C85.4868 218.409 84.7908 218.333 84.4818 218.401C84.1728 218.468 83.8423 218.734 83.6891 219.22L83.1141 218.957C83.2565 218.57 83.3882 218.282 83.5306 217.895C83.6623 217.608 83.794 217.32 83.8262 217.022C83.8477 216.823 83.9794 216.536 84.1433 215.95C84.1648 215.751 84.1863 215.552 84.2965 215.464L84.8823 215.628L84.8715 215.727C84.7184 216.213 84.7748 216.622 84.9413 216.941C85.2073 217.272 85.8818 217.546 87.0533 217.874L88.7112 218.355L89.3964 218.53C89.5281 218.242 89.6705 217.855 89.8344 217.27C89.9984 216.684 90.13 216.396 90.2617 216.109C90.4042 215.722 90.5573 215.235 90.6998 214.849C90.853 214.362 91.0061 213.876 91.1701 213.29C90.8826 213.158 90.4956 213.016 90.1087 212.874C89.7218 212.731 89.3349 212.589 88.8485 212.435C87.2901 211.965 86.2072 211.747 85.5892 211.882C84.9711 212.016 84.4203 212.459 83.8371 213.201L83.2836 212.739C83.6357 212.274 83.9877 211.809 84.2403 211.334C84.4929 210.858 84.8449 210.393 85.0868 210.017C86.0595 210.323 86.922 210.718 87.7952 211.014C88.6685 211.31 89.343 211.584 90.0282 211.758C91.0008 212.065 92.4599 212.524 94.5155 213.048L94.803 213.18L94.639 213.766L94.5396 213.755C94.5396 213.755 94.4402 213.744 94.3408 213.734C93.5669 213.449 92.7527 214.467 91.9975 216.799C91.8336 217.385 91.6804 217.871 91.5487 218.159L90.6727 220.679C90.5087 221.265 90.3555 221.752 90.2023 222.238C90.0492 222.724 89.8852 223.31 89.6219 223.885C89.4687 224.371 89.4257 224.769 89.5923 225.089C89.7588 225.409 90.0463 225.54 90.5327 225.693L90.6321 225.704L90.4467 226.489Z" fill="black"/>
<path d="M66.4757 216.555C66.7283 216.079 66.8707 215.692 67.0239 215.206C67.1771 214.719 67.3195 214.332 67.3733 213.835L68.1579 214.021C67.873 214.795 67.8972 215.501 68.2411 216.041C68.585 216.582 69.1278 217.143 69.8909 217.527C70.654 217.912 71.3499 217.987 72.0674 217.863C72.6854 217.729 73.2255 217.385 73.4889 216.81C73.9941 215.859 73.3385 214.481 71.6108 212.785C71.334 212.554 71.2561 212.344 71.068 212.223C70.2485 211.431 69.8267 210.681 69.6037 209.953C69.3807 209.224 69.4667 208.429 69.8403 207.765C70.367 206.615 71.3478 205.917 72.5838 205.648C73.8199 205.379 75.201 205.629 76.6386 206.288C77.2136 206.551 77.6784 206.903 78.1432 207.255C78.6081 207.607 79.0622 208.059 79.5163 208.51C79.5055 208.61 79.4061 208.599 79.3954 208.698C79.3846 208.798 79.2744 208.886 79.2529 209.085C79.0111 209.461 78.8579 209.948 78.7155 210.335C78.573 210.722 78.4198 211.208 78.3768 211.606L77.4928 211.409C77.8986 210.447 77.896 209.542 77.6622 208.913C77.3398 208.174 76.797 207.613 75.7464 207.097C74.8839 206.702 74.0993 206.516 73.2717 206.728C72.5542 206.852 72.0034 207.295 71.6298 207.959C71.1246 208.91 71.6029 210.068 73.0646 211.433C73.2419 211.654 73.43 211.775 73.5186 211.885C74.5262 212.798 75.1254 213.769 75.3484 214.497C75.5714 215.225 75.4746 216.12 75.0796 216.982C74.5636 218.033 73.7924 218.654 72.6558 218.933C71.5192 219.212 70.3261 219.083 69.1868 218.457C68.7112 218.205 68.3351 217.963 67.8595 217.71C67.5935 217.38 67.0292 217.017 66.4757 216.555Z" fill="black"/>
<path d="M59.995 213.239C59.6188 212.997 59.2534 212.656 58.8772 212.414C58.5011 212.172 58.1249 211.931 57.7487 211.689C57.4719 211.458 57.0958 211.216 56.7196 210.974C56.3434 210.732 55.9672 210.49 55.4916 210.238L55.8544 209.673L55.9431 209.783C56.3193 210.025 56.6068 210.157 56.8056 210.178C57.0045 210.2 57.2141 210.122 57.4236 210.044C57.5338 209.956 57.7542 209.778 57.8858 209.491C58.1169 209.214 58.3695 208.738 58.8317 208.185L59.9093 206.591L62.6583 202.564C63.1313 201.911 63.3839 201.435 63.5156 201.148C63.6473 200.86 63.7682 200.672 63.7897 200.473C63.8112 200.274 63.7333 200.065 63.6446 199.955C63.4673 199.734 63.2792 199.613 62.903 199.371L62.7149 199.251L63.0777 198.686C63.5425 199.038 63.9187 199.28 64.2841 199.621C64.6496 199.963 65.0365 200.105 65.2138 200.325C65.4906 200.557 65.8668 200.798 66.2429 201.04C66.6191 201.282 67.0947 201.535 67.4709 201.777L67.1081 202.341L66.92 202.22C66.5438 201.978 66.3558 201.857 66.0575 201.825C65.8587 201.803 65.6598 201.782 65.4502 201.86C65.2406 201.938 65.0203 202.115 64.7784 202.491C64.5473 202.768 64.0744 203.421 63.4805 204.262L62.634 205.579L60.4789 208.765C59.885 209.606 59.5115 210.27 59.2804 210.547C59.0385 210.923 58.9068 211.21 58.8853 211.409C58.8638 211.608 58.8423 211.807 58.9202 212.017C58.9982 212.226 59.2749 212.457 59.6511 212.699L59.8392 212.82L59.995 213.239Z" fill="black"/>
<path d="M41.4979 198.263C41.8392 197.897 42.081 197.521 42.4331 197.056C42.6749 196.68 43.0269 196.215 43.2795 195.74L43.9432 196.113C43.4488 196.965 43.3627 197.76 43.5857 198.489C43.798 199.316 44.4187 200.087 45.3376 200.891C46.6219 202.036 47.9816 202.485 49.2955 202.425C50.6095 202.366 51.9101 201.501 53.165 200.128C54.4307 198.656 55.0998 197.119 55.073 195.507C55.0462 193.894 54.3906 192.516 53.0068 191.36C52.7301 191.129 52.4533 190.898 52.0772 190.656C51.701 190.414 51.4135 190.283 50.9271 190.13C50.5859 190.495 50.2553 190.761 50.0242 191.038C49.7931 191.315 49.5728 191.492 49.4519 191.68C48.7586 192.51 48.3958 193.074 48.3528 193.472C48.42 193.781 48.7746 194.222 49.3174 194.783L49.406 194.894L48.9546 195.348C48.5892 195.006 48.2345 194.566 47.8583 194.324C47.4929 193.983 47.2162 193.752 46.9394 193.52C46.574 193.179 46.1978 192.937 45.9318 192.607C45.6658 192.276 45.2789 192.134 45.0021 191.903L45.4536 191.449C45.819 191.79 46.2059 191.932 46.5042 191.965C46.8132 191.897 47.2646 191.443 47.9579 190.613L48.6405 189.882C48.9817 189.517 49.2128 189.24 49.4439 188.963C49.5649 188.775 49.796 188.498 49.9169 188.31C50.105 188.431 50.3925 188.563 50.7686 188.805C52.2841 189.673 53.324 190.288 54.0656 190.871C55.7153 192.357 56.6369 194.066 56.8411 195.899C57.0452 197.732 56.3438 199.567 54.9572 201.227C53.5706 202.888 51.7729 203.699 49.8517 203.793C47.831 203.876 46.0066 203.076 44.2574 201.579C43.7039 201.117 43.2605 200.566 42.8172 200.015C42.2637 199.553 41.8311 198.902 41.4979 198.263Z" fill="black"/>
<path d="M35.5415 192.89C35.3641 192.67 35.1976 192.35 35.0202 192.13C34.8429 191.909 34.6656 191.689 34.4882 191.469C34.4103 191.259 34.2222 191.138 34.0449 190.918C33.8675 190.698 33.6902 190.477 33.4134 190.246C33.5344 190.058 33.6553 189.87 33.6876 189.572C33.8192 189.284 33.8515 188.986 33.8838 188.688L36.5095 176.499C35.7383 177.12 34.7468 177.918 33.4247 178.982C30.7806 181.11 29.3483 182.263 29.1172 182.539C28.8861 182.816 28.8646 183.015 28.8431 183.214C28.921 183.423 28.9882 183.732 29.2542 184.063L29.4315 184.283L28.8807 184.727C28.792 184.617 28.792 184.617 28.7141 184.407C28.1928 183.646 27.8489 183.106 27.5829 182.776C27.3169 182.445 26.9622 182.005 26.3415 181.233C26.2529 181.123 26.1642 181.013 26.1642 181.013L26.7151 180.57C26.7151 180.57 26.7043 180.669 26.8037 180.68L26.8924 180.79C27.4244 181.451 28.6712 181.083 30.5442 179.576C30.9849 179.221 31.4255 178.866 31.6459 178.689L33.7284 177.104C34.0589 176.838 34.3787 176.671 34.7092 176.405C35.0397 176.139 35.4804 175.784 36.0313 175.341C36.6816 174.909 37.133 174.454 37.4636 174.188C37.7941 173.922 38.0252 173.646 38.2455 173.468L38.9549 174.35C38.8232 174.637 38.6592 175.223 38.4523 176.206L38.4308 176.405L35.7512 189.091L35.9716 188.913C40.8084 185.111 43.2322 183.161 43.4741 182.785C43.7052 182.508 43.7267 182.309 43.7482 182.11C43.7697 181.911 43.6031 181.592 43.3371 181.261L43.1598 181.041L43.7106 180.597C43.7993 180.708 43.888 180.818 43.9766 180.928C44.4979 181.688 44.8526 182.129 45.1186 182.46C45.2959 182.68 45.5619 183.01 45.8387 183.242C46.1047 183.572 46.3814 183.803 46.6474 184.134L46.0966 184.577L45.9192 184.357C45.3872 183.696 44.1404 184.064 42.2675 185.571C41.8268 185.926 41.3861 186.28 41.1657 186.458L39.0832 188.043C38.6425 188.398 38.2018 188.752 37.7719 189.008C37.342 189.263 36.8905 189.717 36.3396 190.16C35.899 190.515 35.6679 190.792 35.6356 191.09C35.6033 191.388 35.7592 191.807 36.1246 192.149L36.3019 192.369L35.5415 192.89Z" fill="black"/>
<path d="M22.7783 175.116C22.2893 174.057 21.8782 173.208 21.4671 172.359C21.0561 171.51 20.7229 170.87 20.379 170.33C20.0458 169.691 19.7126 169.051 19.3795 168.412C19.0463 167.772 18.6137 167.122 18.2806 166.482C18.7105 166.227 19.1404 165.972 19.5704 165.717C20.0003 165.461 20.4303 165.206 20.8709 164.851L21.2149 165.391C20.5646 165.824 20.2126 166.289 20.1588 166.786C20.105 167.283 20.4059 168.221 21.083 169.401C21.2496 169.72 21.5828 170.36 22.0046 171.11C22.0825 171.319 22.1712 171.429 22.1604 171.529C22.8994 171.206 23.7485 170.795 24.7078 170.296C25.7665 169.807 26.406 169.473 26.7258 169.307L26.5592 168.987C26.3927 168.667 26.1374 168.237 25.8929 167.708C25.6484 167.179 25.4818 166.859 25.4039 166.649C24.9928 165.8 24.6489 165.26 24.262 165.118C23.8751 164.975 23.5768 164.943 23.1576 165.099L22.9131 164.569C23.3323 164.414 23.6521 164.247 23.9611 164.18C24.2701 164.113 24.5899 163.946 24.8102 163.769C24.9204 163.68 25.2401 163.513 25.7695 163.269C25.9791 163.191 26.0893 163.102 26.1994 163.014L26.5434 163.554L26.4439 163.543C25.9146 163.788 25.6835 164.064 25.6405 164.462C25.5975 164.86 25.9199 165.599 26.4196 166.558L27.2633 168.057L27.5964 168.697C27.9162 168.53 28.236 168.364 28.7653 168.119C29.2947 167.875 29.6145 167.708 29.8348 167.531C30.254 167.375 30.5845 167.109 31.0145 166.854C31.4444 166.598 31.8743 166.343 32.4037 166.099C32.3365 165.79 32.1699 165.47 32.0141 165.051C31.8583 164.632 31.5923 164.301 31.4365 163.882C30.6922 162.393 30.0823 161.523 29.5073 161.259C29.0424 160.907 28.2471 160.821 27.32 161.023L27.1965 160.305C27.8037 160.27 28.3223 160.125 28.8409 159.98C29.3596 159.835 29.8674 159.789 30.386 159.644C30.7863 160.593 31.1974 161.442 31.6193 162.192C32.0411 162.941 32.3635 163.68 32.6967 164.32C33.1077 165.169 33.8627 166.558 34.9724 168.388L35.139 168.708L34.5989 169.052C34.5989 169.052 34.6096 168.952 34.5102 168.942C34.5102 168.942 34.4215 168.831 34.4323 168.732C34.0105 167.982 32.7852 168.152 30.5576 169.218C30.0282 169.463 29.5983 169.718 29.2785 169.885L26.9299 171.139C26.4006 171.384 25.9707 171.639 25.4413 171.884C24.9119 172.128 24.482 172.383 23.8425 172.716C23.3131 172.961 23.082 173.238 22.9503 173.525C22.8187 173.813 22.9745 174.232 23.2297 174.662L23.219 174.761L22.7783 175.116Z" fill="black"/>
<path d="M27.667 155.026L27.6778 154.926C27.6778 154.926 27.6885 154.827 27.5999 154.717C27.2882 153.878 26.0844 153.849 23.6902 154.595C23.0722 154.73 22.653 154.886 22.3332 155.052L19.8289 155.888C19.3103 156.033 18.7809 156.277 18.2623 156.422C17.7437 156.567 17.2143 156.812 16.5963 156.946C16.0777 157.091 15.7472 157.357 15.6155 157.645C15.4838 157.932 15.4408 158.33 15.6961 158.76L15.6853 158.859L15.0565 159.093C15.0001 158.685 14.8443 158.266 14.6885 157.846C14.5326 157.427 14.4762 157.019 14.3096 156.699C14.1538 156.28 14.0087 155.761 13.775 155.132C13.5412 154.504 13.3854 154.084 13.3075 153.875C12.9394 152.628 12.8696 151.414 13.2754 150.452C13.6919 149.39 14.3637 148.759 15.4117 148.369C16.1399 148.146 16.8466 148.122 17.6312 148.307C18.3164 148.482 19.0687 148.966 19.7002 149.638L21.7908 147.047C21.901 146.959 22.0219 146.771 22.1428 146.583C23.5402 144.823 24.1878 143.485 23.9648 142.756L23.9756 142.657L24.4942 142.512C24.4834 142.611 24.5721 142.721 24.65 142.931C24.8058 143.35 24.9832 143.571 24.9617 143.769C25.1954 144.398 25.2303 145.005 25.1873 145.403C25.1443 145.801 24.8917 146.276 24.5289 146.841C24.5182 146.94 24.056 147.494 23.2525 148.413C22.449 149.331 21.6348 150.35 20.9415 151.18C21.0194 151.39 21.1968 151.61 21.2639 151.919C21.3311 152.228 21.5084 152.448 21.5756 152.757L21.7207 153.276L24.534 152.373C25.4718 152.072 26.0012 151.828 26.2323 151.551C26.4634 151.274 26.407 150.866 26.2727 150.248C26.2727 150.248 26.2726 150.248 26.2834 150.149C26.2834 150.149 26.2834 150.149 26.2942 150.049C26.2942 150.049 26.2942 150.049 26.3049 149.95L26.9337 149.716C27.0895 150.135 27.1352 150.643 27.291 151.062C27.4468 151.481 27.6027 151.901 27.6591 152.309C27.737 152.519 27.8042 152.828 27.96 153.247C28.1158 153.666 28.2716 154.085 28.5161 154.614L27.667 155.026ZM20.6727 153.666C20.6055 153.357 20.5384 153.048 20.4605 152.838C20.3825 152.628 20.3154 152.319 20.2375 152.11C20.1596 151.9 20.0816 151.691 20.0037 151.481C19.9258 151.271 19.8479 151.062 19.6813 150.742C19.1278 150.28 18.5635 149.917 17.967 149.853C17.3812 149.689 16.774 149.724 16.1452 149.957C15.3068 150.269 14.6565 150.702 14.3717 151.475C13.9874 152.238 14.0008 153.045 14.3017 153.982C14.3796 154.192 14.4468 154.501 14.6241 154.721C14.702 154.931 14.8794 155.151 14.9573 155.361C15.6855 155.138 16.5131 154.926 17.3515 154.614C18.1683 154.501 19.3157 154.122 20.6727 153.666Z" fill="black"/>
<path d="M29.2424 109.38L23.0401 107.084L20.7241 99.4935C20.6348 99.2007 20.3637 99 20.0578 99C19.7518 99 19.4807 99.2007 19.3915 99.4935L17.0761 107.084L10.8731 109.38C10.5992 109.482 10.418 109.742 10.418 110.034C10.418 110.325 10.5992 110.586 10.8731 110.687L17.0726 112.983L19.3894 120.805C19.4772 121.1 19.749 121.303 20.0578 121.303C20.3658 121.303 20.6383 121.1 20.7262 120.804L23.0429 112.982L29.2431 110.687C29.5156 110.586 29.6975 110.326 29.6975 110.034C29.6975 109.742 29.5156 109.482 29.2424 109.38Z" fill="#FFAC33"/>
<path d="M15.3025 117.047L13.6897 116.451L13.0624 114.151C12.9802 113.847 12.7048 113.636 12.3905 113.636C12.0762 113.636 11.8009 113.847 11.7179 114.15L11.0907 116.45L9.47858 117.046C9.20467 117.147 9.02345 117.409 9.02345 117.7C9.02345 117.992 9.20467 118.253 9.47858 118.354L11.0823 118.948L11.7145 121.473C11.7925 121.782 12.0706 122 12.3905 122C12.7104 122 12.9885 121.782 13.0666 121.472L13.6987 118.948L15.3025 118.353C15.5764 118.253 15.7576 117.992 15.7576 117.7C15.7576 117.409 15.5764 117.147 15.3025 117.047ZM12.279 101.949L10.6314 101.339L10.0208 99.6905C9.91976 99.4166 9.65909 99.2354 9.36706 99.2354C9.07573 99.2354 8.81506 99.4166 8.7133 99.6905L8.10345 101.339L6.45512 101.949C6.18121 102.05 6 102.311 6 102.602C6 102.894 6.18121 103.155 6.45512 103.256L8.10345 103.866L8.7133 105.514C8.81506 105.788 9.07573 105.969 9.36706 105.969C9.65839 105.969 9.91906 105.788 10.0208 105.514L10.6307 103.866L12.279 103.256C12.5529 103.154 12.7341 102.894 12.7341 102.602C12.7341 102.311 12.5529 102.05 12.279 101.949Z" fill="#FFCC4D"/>
<path d="M208.302 115.62L214.505 117.916L216.821 125.507C216.91 125.799 217.181 126 217.487 126C217.793 126 218.064 125.799 218.153 125.507L220.469 117.916L226.672 115.62C226.946 115.518 227.127 115.258 227.127 114.966C227.127 114.675 226.946 114.414 226.672 114.313L220.472 112.017L218.156 104.195C218.068 103.9 217.796 103.697 217.487 103.697C217.179 103.697 216.907 103.9 216.819 104.196L214.502 112.018L208.302 114.313C208.029 114.414 207.847 114.674 207.847 114.966C207.847 115.258 208.029 115.518 208.302 115.62Z" fill="#FFAC33"/>
<path d="M222.242 107.953L223.855 108.549L224.483 110.849C224.565 111.153 224.84 111.364 225.154 111.364C225.469 111.364 225.744 111.153 225.827 110.85L226.454 108.55L228.066 107.954C228.34 107.853 228.521 107.591 228.521 107.3C228.521 107.008 228.34 106.747 228.066 106.646L226.463 106.052L225.83 103.527C225.752 103.218 225.474 103 225.154 103C224.834 103 224.556 103.218 224.478 103.528L223.846 106.052L222.242 106.647C221.969 106.747 221.787 107.008 221.787 107.3C221.787 107.591 221.969 107.853 222.242 107.953ZM225.266 123.051L226.914 123.661L227.524 125.31C227.625 125.583 227.886 125.765 228.178 125.765C228.469 125.765 228.73 125.583 228.832 125.31L229.441 123.661L231.09 123.051C231.364 122.95 231.545 122.689 231.545 122.398C231.545 122.106 231.364 121.845 231.09 121.744L229.441 121.134L228.832 119.486C228.73 119.212 228.469 119.031 228.178 119.031C227.887 119.031 227.626 119.212 227.524 119.486L226.914 121.134L225.266 121.744C224.992 121.846 224.811 122.106 224.811 122.398C224.811 122.689 224.992 122.95 225.266 123.051Z" fill="#FFCC4D"/>
</svg>
