<svg width="24" height="25" viewBox="0 0 24 25" fill="none" xmlns="http://www.w3.org/2000/svg">
<path d="M14.8594 7.84734H19.5352V8.98171H14.8594V7.84734ZM10.1742 12.3356C11.2078 11.8411 11.7492 11.0887 11.7492 9.92624C11.7492 7.62703 10.0383 7.06921 8.0625 7.06921H2.625V18.6098H8.21484C10.3102 18.6098 12.2766 17.602 12.2766 15.2583C12.2766 13.8098 11.5922 12.7387 10.1742 12.3356ZM5.16094 9.03796H7.53984C8.45625 9.03796 9.27891 9.29343 9.27891 10.3575C9.27891 11.3372 8.63906 11.7309 7.73203 11.7309H5.16094V9.03796ZM7.86797 16.6505H5.15859V13.4723H7.92188C9.0375 13.4723 9.74297 13.9387 9.74297 15.12C9.74297 16.2825 8.90156 16.6505 7.86797 16.6505ZM21.3633 14.5528C21.3633 12.0802 19.9172 10.02 17.3016 10.02C14.7586 10.02 13.0289 11.9348 13.0289 14.445C13.0289 17.0466 14.6672 18.8325 17.3016 18.8325C19.2961 18.8325 20.5875 17.9348 21.2086 16.02H19.1859C18.9656 16.7348 18.0703 17.1098 17.3742 17.1098C16.0289 17.1098 15.3258 16.3223 15.3258 14.9841H21.3469C21.3539 14.8458 21.3633 14.7005 21.3633 14.5528ZM15.3258 13.5356C15.3984 12.4364 16.132 11.7497 17.2289 11.7497C18.382 11.7497 18.9586 12.427 19.0594 13.5356H15.3258Z" fill="#252323" fill-opacity="0.5"/>
</svg>
