<svg width="24" height="25" viewBox="0 0 24 25" fill="none" xmlns="http://www.w3.org/2000/svg">
<path d="M12 3.19971C6.62344 3.19971 2.25 7.57314 2.25 12.9497C2.25 18.3263 6.62344 22.6997 12 22.6997C17.3766 22.6997 21.75 18.3263 21.75 12.9497C21.75 7.57314 17.3766 3.19971 12 3.19971ZM18.4477 7.69502C19.6078 9.11299 20.3109 10.9177 20.3273 12.8841C20.0531 12.8255 17.2992 12.2677 14.5289 12.6169C14.4703 12.4739 14.4117 12.331 14.3508 12.188C14.1773 11.7825 13.9922 11.3771 13.7977 10.981C16.875 9.72236 18.2719 7.93408 18.4477 7.69502ZM12 4.63408C14.1164 4.63408 16.05 5.42861 17.5195 6.73174C17.3695 6.94502 16.1156 8.63018 13.1555 9.74111C11.7914 7.2333 10.2797 5.17549 10.0477 4.86611C10.6875 4.71143 11.3414 4.63408 12 4.63408ZM8.45859 5.42627C8.67891 5.72627 10.1672 7.79111 11.5453 10.2427C7.65 11.2763 4.21875 11.2622 3.84609 11.2575C4.3875 8.67236 6.12891 6.52549 8.45859 5.42627ZM3.67266 12.9614C3.67266 12.8771 3.675 12.7903 3.67734 12.706C4.04062 12.713 8.07656 12.7646 12.2367 11.52C12.4758 11.9864 12.7031 12.4599 12.9117 12.9333C12.8016 12.9638 12.6914 12.9966 12.5836 13.0317C8.2875 14.4239 6.00234 18.2091 5.8125 18.5302C4.48359 17.0536 3.67266 15.1013 3.67266 12.9614ZM12 21.2888C10.0734 21.2888 8.29922 20.6325 6.88828 19.531C7.03828 19.2239 8.72344 15.9685 13.4203 14.3302L13.4742 14.3114C14.6438 17.3489 15.1266 19.8966 15.2508 20.6278C14.2234 21.0669 13.1173 21.2918 12 21.2888ZM16.6523 19.8661C16.568 19.3599 16.125 16.9224 15.0352 13.9294C17.6461 13.5122 19.9383 14.1966 20.2219 14.2856C19.8516 16.6013 18.5227 18.6028 16.6523 19.8661Z" fill="#252323" fill-opacity="0.5"/>
</svg>
