<svg width="24" height="25" viewBox="0 0 24 25" fill="none" xmlns="http://www.w3.org/2000/svg">
<path d="M20.625 3.57471H3.375C2.96016 3.57471 2.625 3.90986 2.625 4.32471V21.5747C2.625 21.9896 2.96016 22.3247 3.375 22.3247H20.625C21.0398 22.3247 21.375 21.9896 21.375 21.5747V4.32471C21.375 3.90986 21.0398 3.57471 20.625 3.57471ZM18.4594 9.04736H16.9617C15.7875 9.04736 15.5602 9.60518 15.5602 10.4255V12.2325H18.3633L17.9977 15.0614H15.5602V22.3247H12.6375V15.0638H10.193V12.2325H12.6375V10.1466C12.6375 7.72549 14.1164 6.40596 16.2773 6.40596C17.3133 6.40596 18.2016 6.4833 18.4617 6.51846V9.04736H18.4594Z" fill="#252323" fill-opacity="0.5"/>
</svg>
