<svg width="24" height="25" viewBox="0 0 24 25" fill="none" xmlns="http://www.w3.org/2000/svg">
<path d="M8.94433 22.9497C8.13227 22.9555 7.33847 22.7089 6.67261 22.244C6.00675 21.7791 5.5017 21.1189 5.22724 20.3546C4.95279 19.5903 4.92248 18.7597 5.1405 17.9774C5.35853 17.1951 5.81412 16.4999 6.44433 15.9877C5.99156 15.6213 5.62641 15.1583 5.37557 14.6325C5.12474 14.1068 4.99456 13.5317 4.99456 12.9492C4.99456 12.3667 5.12474 11.7916 5.37557 11.2659C5.62641 10.7402 5.99156 10.2772 6.44433 9.91072C5.81334 9.39902 5.35701 8.70382 5.13851 7.92136C4.92001 7.1389 4.95014 6.30786 5.22474 5.54328C5.49933 4.77869 6.00481 4.11838 6.67121 3.65372C7.33761 3.18906 8.13196 2.94304 8.94433 2.94972H15.0543C15.8667 2.94304 16.6611 3.18906 17.3275 3.65372C17.9939 4.11838 18.4993 4.77869 18.7739 5.54328C19.0485 6.30786 19.0787 7.1389 18.8602 7.92136C18.6417 8.70382 18.1853 9.39902 17.5543 9.91072C18.1851 10.4226 18.6413 11.1179 18.8597 11.9003C19.078 12.6828 19.0479 13.5138 18.7733 14.2783C18.4988 15.0429 17.9934 15.7032 17.3272 16.168C16.6609 16.6328 15.8667 16.8791 15.0543 16.8727C14.2853 16.8737 13.5328 16.6498 12.8893 16.2287V19.0287C12.8848 20.0714 12.467 21.0697 11.7274 21.8048C10.9879 22.5398 9.98703 22.9516 8.94433 22.9497ZM8.92233 16.8737C8.49802 16.8804 8.08516 17.0124 7.7356 17.253C7.38604 17.4936 7.11538 17.8321 6.95763 18.2261C6.79987 18.62 6.76206 19.0518 6.84893 19.4672C6.93581 19.8826 7.14349 20.263 7.44591 20.5607C7.74832 20.8584 8.13197 21.0601 8.54865 21.1405C8.96534 21.2209 9.39648 21.1763 9.78791 21.0124C10.1793 20.8485 10.5136 20.5725 10.7487 20.2192C10.9838 19.866 11.1093 19.4511 11.1093 19.0267V16.8737H8.92133H8.92233ZM15.0553 10.7967C14.63 10.7989 14.2148 10.927 13.8622 11.1649C13.5096 11.4028 13.2354 11.7398 13.0741 12.1334C12.9128 12.527 12.8717 12.9595 12.9561 13.3764C13.0404 13.7934 13.2463 14.176 13.5478 14.476C13.8494 14.776 14.233 14.9799 14.6503 15.0621C15.0677 15.1443 15.5 15.101 15.8928 14.9378C16.2855 14.7745 16.6211 14.4985 16.8572 14.1447C17.0933 13.7909 17.2193 13.3751 17.2193 12.9497C17.2172 12.3773 16.9881 11.8291 16.5822 11.4254C16.1763 11.0218 15.6268 10.7957 15.0543 10.7967H15.0553ZM8.94533 10.7967C8.37432 10.7937 7.82549 11.0176 7.41957 11.4192C7.01364 11.8208 6.78388 12.3672 6.78083 12.9382C6.77778 13.5092 7.00169 14.0581 7.4033 14.464C7.80491 14.8699 8.35132 15.0997 8.92233 15.1027H11.1093V10.7967H8.94533ZM12.8893 4.71972V9.02672H15.0533C15.6103 9.02931 16.1467 8.81614 16.55 8.4319C16.9532 8.04766 17.192 7.5222 17.2163 6.96572V7.40072V6.87272C17.214 6.30088 16.9851 5.75328 16.5799 5.34977C16.1747 4.94626 15.6262 4.71971 15.0543 4.71972H12.8893ZM8.94333 4.71972C8.37232 4.71972 7.8247 4.94655 7.42093 5.35032C7.01717 5.75408 6.79033 6.30171 6.79033 6.87272C6.79033 7.44373 7.01717 7.99135 7.42093 8.39512C7.8247 8.79888 8.37232 9.02572 8.94333 9.02572H11.1093V4.71972H8.94333Z" fill="#252323" fill-opacity="0.5"/>
</svg>
