<svg width="24" height="25" viewBox="0 0 24 25" fill="none" xmlns="http://www.w3.org/2000/svg">
<path d="M11.9991 8.14269C9.33898 8.14269 7.1921 10.2896 7.1921 12.9497C7.1921 15.6099 9.33898 17.7568 11.9991 17.7568C14.6593 17.7568 16.8062 15.6099 16.8062 12.9497C16.8062 10.2896 14.6593 8.14269 11.9991 8.14269ZM11.9991 16.0739C10.2788 16.0739 8.87492 14.67 8.87492 12.9497C8.87492 11.2294 10.2788 9.8255 11.9991 9.8255C13.7194 9.8255 15.1234 11.2294 15.1234 12.9497C15.1234 14.67 13.7194 16.0739 11.9991 16.0739ZM17.003 6.8255C16.3819 6.8255 15.8804 7.32706 15.8804 7.94816C15.8804 8.56925 16.3819 9.07081 17.003 9.07081C17.6241 9.07081 18.1257 8.5716 18.1257 7.94816C18.1259 7.80068 18.097 7.65461 18.0406 7.51832C17.9843 7.38203 17.9016 7.25819 17.7973 7.15391C17.693 7.04962 17.5692 6.96694 17.4329 6.91058C17.2966 6.85423 17.1505 6.82532 17.003 6.8255ZM21.3694 12.9497C21.3694 11.656 21.3812 10.3739 21.3085 9.08253C21.2359 7.58253 20.8937 6.25128 19.7968 5.15441C18.6976 4.05519 17.3687 3.71535 15.8687 3.64269C14.5749 3.57003 13.2929 3.58175 12.0015 3.58175C10.7077 3.58175 9.4257 3.57003 8.13429 3.64269C6.63429 3.71535 5.30304 4.05753 4.20617 5.15441C3.10695 6.25363 2.7671 7.58253 2.69445 9.08253C2.62179 10.3763 2.63351 11.6583 2.63351 12.9497C2.63351 14.2411 2.62179 15.5255 2.69445 16.8169C2.7671 18.3169 3.10929 19.6482 4.20617 20.745C5.30538 21.8443 6.63429 22.1841 8.13429 22.2568C9.42804 22.3294 10.7101 22.3177 12.0015 22.3177C13.2952 22.3177 14.5773 22.3294 15.8687 22.2568C17.3687 22.1841 18.6999 21.8419 19.7968 20.745C20.896 19.6458 21.2359 18.3169 21.3085 16.8169C21.3835 15.5255 21.3694 14.2435 21.3694 12.9497ZM19.3069 18.4763C19.1359 18.9028 18.9296 19.2216 18.5991 19.5497C18.2687 19.8802 17.9523 20.0864 17.5257 20.2575C16.2929 20.7474 13.3655 20.6372 11.9991 20.6372C10.6327 20.6372 7.70304 20.7474 6.47023 20.2599C6.04367 20.0888 5.72492 19.8825 5.39679 19.5521C5.06632 19.2216 4.86007 18.9052 4.68898 18.4786C4.20148 17.2435 4.31163 14.3161 4.31163 12.9497C4.31163 11.5833 4.20148 8.65363 4.68898 7.42081C4.86007 6.99425 5.06632 6.6755 5.39679 6.34738C5.72726 6.01925 6.04367 5.81066 6.47023 5.63956C7.70304 5.15206 10.6327 5.26222 11.9991 5.26222C13.3655 5.26222 16.2952 5.15206 17.528 5.63956C17.9546 5.81066 18.2734 6.01691 18.6015 6.34738C18.9319 6.67785 19.1382 6.99425 19.3093 7.42081C19.7968 8.65363 19.6866 11.5833 19.6866 12.9497C19.6866 14.3161 19.7968 17.2435 19.3069 18.4763Z" fill="#252323" fill-opacity="0.5"/>
</svg>
