<svg width="36" height="36" viewBox="0 0 36 36" fill="none" xmlns="http://www.w3.org/2000/svg">
<rect width="36" height="36" rx="18" fill="#8E8E8E" fill-opacity="0.1"/>
<path fill-rule="evenodd" clip-rule="evenodd" d="M18 13.5C16.4536 13.5 15.2 14.8432 15.2 16.5001C15.2 18.1569 16.4536 19.5001 18 19.5001C19.5464 19.5001 20.8 18.1569 20.8 16.5001C20.8 14.8432 19.5464 13.5 18 13.5ZM16.6 16.5001C16.6 15.6716 17.2268 15 18 15C18.7732 15 19.4 15.6716 19.4 16.5001C19.4 17.3285 18.7732 18.0001 18 18.0001C17.2268 18.0001 16.6 17.3285 16.6 16.5001Z" fill="#8E8E8E"/>
<path fill-rule="evenodd" clip-rule="evenodd" d="M17.6113 26.8739C17.6115 26.874 17.6117 26.8742 18 26.2501L17.6113 26.8739C17.8465 27.0419 18.1532 27.0421 18.3883 26.8742L18 26.2501C18.3883 26.8742 18.3881 26.8743 18.3883 26.8742L18.3907 26.8725L18.3953 26.8691L18.4114 26.8575C18.425 26.8476 18.4444 26.8333 18.4693 26.8149C18.519 26.778 18.5905 26.7242 18.6805 26.6545C18.8606 26.5152 19.1155 26.3118 19.4204 26.0517C20.0291 25.5324 20.8424 24.7822 21.6582 23.8597C23.261 22.0469 25 19.4265 25 16.5001C25 14.5109 24.2625 12.6032 22.9497 11.1967C21.637 9.79018 19.8565 9 18 9C16.1435 9 14.363 9.79018 13.0503 11.1967C11.7375 12.6032 11 14.5109 11 16.5001C11 19.4265 12.739 22.0469 14.3418 23.8597C15.1576 24.7822 15.9709 25.5324 16.5796 26.0517C16.8845 26.3118 17.1394 26.5152 17.3195 26.6545C17.4095 26.7242 17.481 26.778 17.5307 26.8149C17.5556 26.8333 17.575 26.8476 17.5886 26.8575L17.6047 26.8691L17.6093 26.8725L17.6113 26.8739ZM14.0402 12.2574C15.0904 11.1322 16.5148 10.5 18 10.5C19.4852 10.5 20.9096 11.1322 21.9598 12.2574C23.01 13.3826 23.6 14.9087 23.6 16.5001C23.6 18.8236 22.189 21.0783 20.6418 22.828C19.8826 23.6867 19.1209 24.3897 18.5483 24.8783C18.3352 25.0601 18.1491 25.2115 18 25.3296C17.8509 25.2115 17.6648 25.0601 17.4517 24.8783C16.8791 24.3897 16.1174 23.6867 15.3582 22.828C13.811 21.0783 12.4 18.8236 12.4 16.5001C12.4 14.9087 12.99 13.3826 14.0402 12.2574Z" fill="#8E8E8E"/>
</svg>
