<svg width="24" height="25" viewBox="0 0 24 25" fill="none" xmlns="http://www.w3.org/2000/svg">
<path d="M21.7504 6.90987C21.0332 7.21925 20.2527 7.4419 19.4488 7.52862C20.2835 7.03277 20.9085 6.2494 21.2066 5.3255C20.4234 5.79141 19.5654 6.11812 18.6707 6.29112C18.2967 5.89134 17.8445 5.57286 17.342 5.35552C16.8396 5.13817 16.2978 5.02663 15.7504 5.02784C13.5355 5.02784 11.7543 6.82315 11.7543 9.02628C11.7543 9.33565 11.7918 9.64503 11.8527 9.94269C8.53633 9.76925 5.57852 8.18487 3.61211 5.75909C3.25381 6.37108 3.06605 7.0679 3.06836 7.77706C3.06836 9.16456 3.77383 10.388 4.84961 11.1075C4.21564 11.0826 3.59651 10.9083 3.04258 10.5989V10.6482C3.04258 12.5911 4.41602 14.2013 6.24648 14.5716C5.90279 14.6609 5.54924 14.7065 5.19414 14.7075C4.93398 14.7075 4.68789 14.6817 4.43945 14.6466C4.9457 16.231 6.41992 17.3817 8.17539 17.4192C6.80195 18.495 5.08164 19.1278 3.21367 19.1278C2.87852 19.1278 2.56914 19.1161 2.24805 19.0786C4.01992 20.2153 6.12227 20.8716 8.38633 20.8716C15.7363 20.8716 19.7582 14.7825 19.7582 9.49737C19.7582 9.32394 19.7582 9.1505 19.7465 8.97706C20.5246 8.40753 21.2066 7.70206 21.7504 6.90987Z" fill="#252323" fill-opacity="0.5"/>
</svg>
