<svg width="24" height="25" viewBox="0 0 24 25" fill="none" xmlns="http://www.w3.org/2000/svg">
<path fill-rule="evenodd" clip-rule="evenodd" d="M12.75 2.44971C15.3359 2.44971 17.8158 3.47694 19.6443 5.30542C21.4728 7.1339 22.5 9.61385 22.5 12.1997C22.5 14.7856 21.4728 17.2655 19.6443 19.094C17.8158 20.9225 15.3359 21.9497 12.75 21.9497C10.1641 21.9497 7.68419 20.9225 5.85571 19.094C4.02723 17.2655 3 14.7856 3 12.1997C3 9.61385 4.02723 7.1339 5.85571 5.30542C7.68419 3.47694 10.1641 2.44971 12.75 2.44971V2.44971ZM20.091 8.44971C19.129 6.57922 17.4919 5.14433 15.5115 4.43571C16.1775 5.69571 16.659 7.04571 16.941 8.44971H20.091ZM20.964 12.9422C20.988 12.6954 21 12.4476 21 12.1997C20.9985 11.4385 20.891 10.6812 20.6805 9.94971H17.1675C17.2155 10.4462 17.25 10.9457 17.25 11.4497C17.2469 12.4575 17.1434 13.4625 16.941 14.4497H20.6805C20.823 13.9562 20.9175 13.4522 20.9655 12.9422H20.964ZM15.6615 12.9422L15.6705 12.8657C15.7217 12.3954 15.7482 11.9228 15.75 11.4497C15.7399 10.948 15.7019 10.4472 15.636 9.94971H9.864C9.79758 10.4471 9.75952 10.9479 9.75 11.4497C9.75367 12.4596 9.8709 13.466 10.0995 14.4497H15.4005C15.516 13.9517 15.603 13.4492 15.6615 12.9422V12.9422ZM15.3735 8.44971C15.0201 6.86323 14.3823 5.35388 13.491 3.99471C13.245 3.97371 12.999 3.94971 12.75 3.94971C12.5937 3.95047 12.4376 3.95798 12.282 3.97221L12.009 3.99471L12 4.00971C11.1134 5.3649 10.4787 6.86902 10.1265 8.44971H15.3735ZM8.559 8.44971C8.84672 7.04668 9.33472 5.69231 10.008 4.42821C8.01898 5.13441 6.37419 6.57265 5.409 8.44971H8.559V8.44971ZM4.8195 9.94971C4.60934 10.6813 4.50181 11.4385 4.5 12.1997C4.50181 12.9609 4.60934 13.7181 4.8195 14.4497H8.559C8.35564 13.4626 8.25212 12.4575 8.25 11.4497C8.25 10.9457 8.2845 10.4462 8.3325 9.94971H4.8195ZM8.9505 15.9497H5.4105C5.97752 17.0573 6.78708 18.0227 7.77891 18.774C8.77073 19.5253 9.91927 20.0433 11.139 20.2892C10.179 18.971 9.43982 17.5053 8.9505 15.9497ZM12.75 19.9157C13.7092 18.7294 14.4589 17.3882 14.967 15.9497H10.533C11.0411 17.3882 11.7909 18.7294 12.75 19.9157ZM16.5495 15.9497C16.0602 17.5053 15.321 18.971 14.361 20.2892C15.5806 20.0431 16.7291 19.5251 17.7209 18.7737C18.7127 18.0224 19.5223 17.0571 20.0895 15.9497H16.5495V15.9497Z" fill="#252323" fill-opacity="0.5"/>
</svg>
