<svg width="36" height="36" viewBox="0 0 36 36" fill="none" xmlns="http://www.w3.org/2000/svg">
<rect width="36" height="36" rx="18" fill="#8E8E8E" fill-opacity="0.1"/>
<path fill-rule="evenodd" clip-rule="evenodd" d="M16.3636 10C15.7127 10 15.0883 10.2529 14.628 10.7029C14.1677 11.153 13.9091 11.7635 13.9091 12.4V13.2H11.4545C10.0989 13.2 9 14.2745 9 15.6V23.6C9 24.9255 10.0989 26 11.4545 26H24.5455C25.9011 26 27 24.9255 27 23.6V15.6C27 14.2745 25.9011 13.2 24.5455 13.2H22.0909V12.4C22.0909 11.7635 21.8323 11.153 21.372 10.7029C20.9117 10.2529 20.2873 10 19.6364 10H16.3636ZM20.4545 13.2V12.4C20.4545 12.1878 20.3683 11.9843 20.2149 11.8343C20.0615 11.6843 19.8534 11.6 19.6364 11.6H16.3636C16.1466 11.6 15.9385 11.6843 15.7851 11.8343C15.6317 11.9843 15.5455 12.1878 15.5455 12.4V13.2H20.4545ZM15.5455 14.8H20.4545V24.4H15.5455V14.8ZM13.9091 14.8H11.4545C11.0027 14.8 10.6364 15.1582 10.6364 15.6V23.6C10.6364 24.0418 11.0027 24.4 11.4545 24.4H13.9091V14.8ZM22.0909 24.4V14.8H24.5455C24.9973 14.8 25.3636 15.1582 25.3636 15.6V23.6C25.3636 24.0418 24.9973 24.4 24.5455 24.4H22.0909Z" fill="#8E8E8E"/>
</svg>
